<?xml version="1.0" standalone="no"?>
<!DOCTYPE svg PUBLIC "-//W3C//DTD SVG 20010904//EN"
 "http://www.w3.org/TR/2001/REC-SVG-20010904/DTD/svg10.dtd">
<svg version="1.0" xmlns="http://www.w3.org/2000/svg"
 width="782.000000pt" height="782.000000pt" viewBox="0 0 782.000000 782.000000"
 preserveAspectRatio="xMidYMid meet">
<metadata>
Created by potrace 1.14, written by Peter Selinger 2001-2017
</metadata>
<g transform="translate(0.000000,782.000000) scale(0.100000,-0.100000)"
fill="#000000" stroke="none">
<path d="M9 7810 c-2 -7 -4 -7540 -3 -7540 5 0 7194 7193 7192 7195 -2 2 -48
6 -103 9 -55 4 -118 9 -140 11 -37 4 -70 6 -270 20 -126 9 -219 16 -270 20
-27 3 -81 7 -120 10 -38 2 -108 7 -155 10 -47 3 -105 8 -130 10 -25 2 -88 7
-140 10 -52 4 -115 8 -139 10 -25 3 -83 7 -130 10 l-86 6 -2115 -2116 -2115
-2115 -5 2227 -5 2228 -632 0 c-348 0 -634 -2 -634 -5z"/>
<path d="M3871 3609 c-1976 -1976 -3588 -3595 -3583 -3598 6 -3 1701 -6 3769
-6 l3758 0 0 638 1 637 -2231 0 -2230 0 2119 2119 2118 2118 -6 69 c-3 38 -8
105 -11 149 -3 44 -7 103 -10 130 -3 28 -7 94 -10 148 -3 54 -8 114 -10 135
-2 20 -6 80 -9 132 -4 52 -9 118 -11 145 -5 50 -10 126 -20 265 -3 41 -8 107
-11 145 -3 39 -7 95 -9 125 -4 84 -17 235 -20 238 -1 1 -1619 -1614 -3594
-3589z"/>
</g>
</svg>
