<?xml version="1.0" encoding="utf-8"?>
<!-- Generator: Adobe Illustrator 24.3.1, SVG Export Plug-In . SVG Version: 6.00 Build 0)  -->
<svg version="1.1" id="Layer_1" xmlns="http://www.w3.org/2000/svg" xmlns:xlink="http://www.w3.org/1999/xlink" x="0px" y="0px"
	 viewBox="0 0 1920 627" style="enable-background:new 0 0 1920 627;" xml:space="preserve">
<style type="text/css">
	.st0{fill:#C6B265;}
	.st1{fill:url(#SVGID_1_);stroke:#C7A12C;stroke-width:0.5;stroke-linecap:round;stroke-linejoin:round;stroke-miterlimit:10;}
	.st2{fill:#C7A12C;}
	.st3{fill:#86AEAE;}
</style>
<g>
	<g>
		<g>
			<g>
				<path class="st0" d="M1291.69,194.38c0-7.36,0-14.72,0-22.08c-0.01-1.52,0.07-2.93,0.23-4.3c-4.86,4.9-6.95,10.3-6.89,17.58
					c0,21.86,0,43.7,0,65.56c2.23-0.04,4.46-0.01,6.66,0.05C1291.69,232.26,1291.69,213.32,1291.69,194.38z"/>
			</g>
			<g>
				<path class="st0" d="M1285.03,321.7L1285.03,321.7c0,27.91,0,55.83,0,83.74c-0.06,7.64,2.19,12.71,7.52,16.74
					c0-0.08,0.01-0.16,0.01-0.24c-0.62-2.3-0.89-4.84-0.87-7.72c0-7.36,0-14.72,0-22.08c0-20.59,0-41.19,0-61.79
					c28.63-3.45,49.07,3.53,60.96,10.13c0.01-0.01,0.01-0.02,0.02-0.04C1350.33,338.12,1329.11,317.25,1285.03,321.7z"/>
			</g>
		</g>
		<g>
			<path class="st0" d="M833.91,274.12c0-7.36,0-14.72,0-22.08c-0.02-2.29,0.15-4.44,0.54-6.46c-5.06,5.41-7.22,11.02-7.16,18.43
				c0,73.29,0,146.56,0,219.85c-0.06,7.41,2.07,12.25,7.06,15.81c-0.31-1.72-0.45-3.63-0.44-5.71c0-7.36,0-14.72,0-22.08
				C833.91,405.95,833.91,340.04,833.91,274.12z"/>
		</g>
		<g>
			<path class="st0" d="M1085.03,236.89c-1.18-0.82-2.39-1.6-3.68-2.31c-7.84-4.34-16.98-7.02-27.17-7.91
				c-9.48-0.83-19.51,0.58-29.8,4.18c-10.25,3.59-19.89,9.32-28.62,17c-7.3,6.42-17.42,16.86-24.19,29.92
				c-6.15,11.87-12.58,26.23-13.77,42.74c-0.14,1.14-9.53,78.75,20.63,112.97c0.01-0.01,0.01-0.01,0.02-0.02
				c-23.53-37.47-15.31-105.4-15.19-106.37c1.22-16.93,7.77-31.54,14.03-43.62c6.95-13.4,17.31-24.08,24.78-30.66
				c8.97-7.89,18.87-13.77,29.42-17.45c10.57-3.68,20.88-5.12,30.63-4.25C1070.48,231.87,1078.14,233.85,1085.03,236.89z"/>
		</g>
		<g>
			<path class="st0" d="M1153.25,332.48c-0.01-1.69,0.08-3.52,0.28-5.18c-4.67,5.14-6.68,10.59-6.61,17.72
				c0.06,31.61,0.11,63.21,0.17,94.82c0,0.62-0.1,1.29-0.3,1.91c-0.05,0.16-0.13,0.41-0.2,0.57c-1.3,3.23-4.19,4.81-5.58,5.57
				c-17.77,9.76-31.51,16.67-49.2,22.77c-17.97,6.22-36.4,11.34-54.75,15.19c-1.33,0.27-2.6,0.51-3.86,0.76
				c-0.02-0.01-0.03,0-0.04,0.01c-28.61,5.43-54.01,6.28-75.48,2.36c-13.44-2.44-25.6-6.21-36.45-11.22
				c12.87,7.36,28.04,12.71,45.32,15.85c21.25,3.9,46.41,3.04,74.79-2.31c0.01,0,0.03,0,0.04-0.01c1.25-0.24,2.51-0.47,3.82-0.74
				c18.24-3.79,36.57-8.88,54.48-15.03c17.51-6.03,31.15-12.85,48.8-22.49c0,0,1.75-1.04,3.41-2.68c0.91-0.9,1.44-2.16,1.44-3.34
				c-0.02-11.94-0.04-23.88-0.07-35.82C1153.25,384.96,1153.25,358.72,1153.25,332.48z"/>
		</g>
		<g>
			<path class="st0" d="M1352.21,273.42c0.1,0.1,0.19,0.19,0.29,0.29c0.01,0,0.01,0,0.01,0c1.64,1.7,3.12,3.47,4.54,5.32
				c8.43-16.51,3.99-32.19,3.94-32.35c-0.41-1.42-1.29-2.6-2.44-3.43C1359.24,250.03,1359.03,261.65,1352.21,273.42z"/>
		</g>
		<g>
			<path class="st0" d="M1464.29,386.83c0-65.92,0-131.84,0-197.75c0-7.36,0-14.72,0-22.08c-0.02-2.29,0.16-4.39,0.54-6.35
				c-5.06,4.37-7.22,9.54-7.16,16.97c0,73.29,0,146.56,0,219.85c-0.06,7.42,2.07,12.65,7.06,17.25c-0.31-1.81-0.45-3.72-0.44-5.8
				C1464.29,401.56,1464.29,394.19,1464.29,386.83z"/>
		</g>
		<g>
			<path class="st0" d="M585.63,297.29c0,61.42,0,122.85,0,184.27c0.21,4.28,1.48,10.96,6.62,15.36c0-62.95,0-125.9,0-188.85
				c0-7.36,0-14.72,0-22.08c-0.02-2.32,0.16-4.42,0.54-6.41C587.73,284.47,585.57,289.87,585.63,297.29z"/>
		</g>
		<g>
			<path class="st0" d="M1691.58,213.29c-2.53-0.79-4.76-1.52-6.73-2.14c-3.23-1.05-6.54-2.09-8.07-2.27
				c-0.17,0.81-0.33,2.45-0.38,5.73c0,70.11,0,140.23,0,210.34c-0.06,7.39,2.07,13.12,7.05,18.85c0.13,0.01,0.27,0.02,0.4,0.03
				c-0.59-2.46-0.86-5.05-0.83-7.87c0-70.12,0-140.25,0-210.37c0.08-5.48,0.5-6.94,0.84-7.22c0.8-0.44,5.51,1.08,9.68,2.45
				c1.96,0.65,4.18,1.38,6.7,2.2c16.59,5.36,29.79,13.22,40.47,23.57C1728.99,231.06,1713.22,220.04,1691.58,213.29z"/>
		</g>
		<g>
			<path class="st0" d="M252.41,150.44c-17.44,4.28-33.85,15.51-42.13,43.76c-0.71,3.32-7.73,33.43-46.45,29.23
				c-4.67-0.57-9.36-1.69-13.9-3.31c-3.03-1.06-6-2.39-8.84-3.89c-2.9-1.51-5.44-3.16-7.53-4.62c0.23,0.25,0.45,0.54,0.71,0.77
				c0.91,0.83,5.81,5.12,12.97,8.84c2.74,1.44,5.6,2.65,8.53,3.68c4.4,1.54,8.95,2.6,13.48,3.1c39.06,3.95,44.78-27.62,44.93-28.34
				c6.67-23.62,21.32-40.09,43.16-45.03c0.16-0.03,0.31-0.05,0.47-0.1c0-1.83,0-3.67,0-5.5C255.98,149.48,254.23,150,252.41,150.44z
				"/>
		</g>
		<g>
			<path class="st0" d="M734.26,75.87c7.64,17.07,7.67,41.24-1.14,60.76c-24.12,53.27-67.58,85.2-132.89,92.97
				c-53.91,6.32-104.76,0.18-151.31-17.97c-10.29,15.43-25.54,20.04-34.72,21.22c8.9,0.81,25.24-0.27,36.69-15.65
				c46.71,18.44,102.08,25.37,156.29,18.78c64.52-7.94,107.43-39.52,131.2-92.06C748.66,121.13,746.61,91.89,734.26,75.87z"/>
		</g>
		<g>
			<path class="st0" d="M439.99,437.98c6.2,3.54,11.01,6.91,14.65,9.83c-2.52-3.69-31.61-31.05-102.12-42.82c0,2.52,0,5.04,0,7.57
				C395.74,420.15,424.45,429,439.99,437.98z"/>
		</g>
		<g>
			<path class="st0" d="M346.04,513.07c-0.06,7.3,2.02,12.76,6.88,17.73c-0.3-1.81-0.45-3.72-0.43-5.78c0-7.36,0-14.72,0-22.08
				c0-17.25,0-34.5,0-51.75c0-2.64,0-5.28,0-7.92c0.01-12.76,0.01-25.52,0.02-38.28c-2.11-0.43-4.27-0.85-6.47-1.26
				C346.04,440.17,346.04,476.62,346.04,513.07z"/>
		</g>
		<g>
			<path class="st0" d="M346.23,313.53c2.81-1.71,4.91-3.78,6.28-6.11c-0.23-43.89-0.46-87.78-0.69-131.67
				c7.7,4.05,42.95,21.96,45.63,46.59c0.18-1.4,0.21-2.75,0.18-4.11c-0.01-0.34-0.02-0.69-0.04-1.02c-0.08-1.29-0.21-2.56-0.47-3.8
				c-0.01-0.05-0.02-0.1-0.02-0.16c-0.27-1.29-0.65-2.55-1.09-3.79c-0.12-0.33-0.24-0.66-0.37-0.99c-0.44-1.14-0.92-2.24-1.48-3.33
				c-0.05-0.11-0.1-0.22-0.16-0.33c-0.62-1.16-1.32-2.3-2.06-3.44c-0.21-0.32-0.43-0.63-0.66-0.97c-0.68-0.99-1.4-1.94-2.16-2.89
				c-0.13-0.14-0.24-0.33-0.36-0.47c-0.87-1.06-1.79-2.09-2.75-3.09c-0.29-0.31-0.59-0.61-0.9-0.93c-0.83-0.85-1.68-1.68-2.56-2.5
				c-0.19-0.18-0.38-0.35-0.57-0.54c-1.03-0.93-2.11-1.85-3.19-2.75c-0.34-0.29-0.69-0.56-1.04-0.85c-0.91-0.74-1.84-1.46-2.78-2.17
				c-0.23-0.18-0.46-0.36-0.69-0.53c-1.13-0.83-2.26-1.62-3.39-2.43c-0.35-0.24-0.72-0.49-1.07-0.73c-0.97-0.66-1.94-1.29-2.9-1.92
				c-0.21-0.14-0.42-0.27-0.63-0.41c-1.16-0.74-2.3-1.44-3.44-2.13c-0.29-0.17-0.59-0.36-0.88-0.52c-1.02-0.61-2.02-1.2-3-1.76
				c-0.13-0.07-0.26-0.15-0.38-0.22c-1.14-0.65-2.25-1.26-3.32-1.84c-0.15-0.08-0.31-0.17-0.46-0.25c-1.05-0.56-2.07-1.11-3.03-1.61
				c-2.18-1.13-4.01-2.03-5.56-2.76C346.23,215.9,346.23,264.72,346.23,313.53z"/>
		</g>
	</g>
	<g>
		<path class="st0" d="M1127.86,240.99c1.15,8.45,1.1,17.75-0.02,27.67c4.72-9.35,5.85-15.55,6.41-24.38
			c37.42-21.88,31.48-44.42,31.49-44.85c0,0-0.46-1.9-1.3-3.83C1162.8,205.54,1156.03,229.14,1127.86,240.99z"/>
	</g>
</g>
<linearGradient id="SVGID_1_" gradientUnits="userSpaceOnUse" x1="955.9236" y1="62.0046" x2="955.9236" y2="554.5715">
	<stop  offset="0" style="stop-color:#FFF9D7"/>
	<stop  offset="0.1493" style="stop-color:#FDF7D3"/>
	<stop  offset="0.2921" style="stop-color:#F7EFC8"/>
	<stop  offset="0.4324" style="stop-color:#EEE3B4"/>
	<stop  offset="0.5711" style="stop-color:#E0D399"/>
	<stop  offset="0.7073" style="stop-color:#CFBD77"/>
	<stop  offset="0.7674" style="stop-color:#C6B265"/>
</linearGradient>
<path class="st1" d="M785.87,256.88c6.26-5.6,16.44-14.52,49.08-27.3c2.2-0.37,4.52-0.56,5.11,1.31c1.01,3.16-2.55,4.71-4.91,6.66
	c-8.99,7.49-13.81,15.66-13.71,27.54c0,73.27,0,146.54,0,219.81c-0.09,11.91,4.72,18.35,13.71,22.59c2.36,1.1,5.91,1.34,4.91,4.87
	c-0.73,2.59-4.09,3.39-6.61,3.84c-2.49,0.45-5.1,0.9-7.46,0.96c-29.76-1.87-37.41-8.12-43.12-11.04
	c-5.84,4.9-13.59,13.75-43.5,25.66c-2.31,0.99-4.66,1.5-6.99,1.85c-2.51,0.39-5.87,0.3-6.61-2.03c-1.01-3.18,2.55-4.61,4.91-6.51
	c8.98-7.22,13.81-15.3,13.71-27.18c0-73.27,0-146.54,0-219.81c0.1-11.9-4.73-18.45-13.71-22.95c-2.35-1.17-5.91-1.54-4.91-5.02
	c0.56-1.9,2.58-2.57,4.61-2.93c32.52,1.86,42.55,7.35,48.71,10.85c0.76,0.42,1.47,0.83,2.14,1.18c0.36,0.18,0.79,0.24,1.2,0.17
	c0.41-0.07,0.82-0.25,1.19-0.57C784.35,258.24,785.08,257.59,785.87,256.88z M1155,310.69c-32.78,12.2-42.98,21.4-49.25,26.97
	c-0.8,0.71-1.52,1.37-2.23,1.96c-0.36,0.31-0.77,0.51-1.19,0.57c-0.42,0.07-0.84,0.02-1.2-0.16c-0.68-0.35-1.39-0.74-2.15-1.16
	c-6.17-3.43-16.23-9.01-48.9-9.76c-2.06,0.44-4.12,1.16-4.68,3.12c-1.01,3.53,2.56,3.75,4.91,4.84
	c8.98,4.19,13.81,10.62,13.71,22.52c-0.07,22.34-0.14,44.67-0.22,67.01c-0.67,5.64-2.74,10.52-6.23,14.54
	c-9.27,10.72-25.61,12.64-26.04,12.72c-0.09,0.02-0.19,0.03-0.28,0.05c-22.57,4.28-40.75,0.16-54.01-12.38
	c-36.06-34.1-25.43-119.27-25.29-120.32c1.27-17.71,8.06-32.88,14.54-45.38c7.31-14.14,18.16-25.28,25.94-32.16
	c9.45-8.32,19.88-14.53,31.01-18.41c11.13-3.89,21.99-5.41,32.26-4.5c10.88,0.94,20.66,3.82,29.09,8.5
	c24.09,13.41,30.51,44.15,30.57,44.44c0.3,1.48,1.71,2.51,3.2,2.02c1.56-0.3,2.85-1.67,3.07-3.26c1.81-13.06,1.62-24.68-0.48-34.92
	c36.79-12.12,37.93-45.26,37.93-45.68c0.02-1.09-0.51-2.02-1.41-2.48c-0.9-0.46-2.05-0.37-3.04,0.21
	c-26.35,15.71-60.46,7.37-71.01,4.23c-14.23-4.57-26.79-4.52-27.49-4.48c-6.52-0.1-13.41,0.09-20.5,0.5
	c-7.21,0.45-14.39,1.32-21.38,2.67l-0.01,0c-24.8,5.13-47,14.02-66,26.33c-18.98,12.31-35.04,26.73-47.72,42.82
	c-12.67,16.11-22.43,33.72-28.99,52.39c-6.54,18.65-9.75,37.27-9.54,55.41c0.22,18.13,3.87,35.38,10.86,51.29
	c7,15.96,17.88,29.5,32.34,40.24c14.43,10.71,32.77,18.15,54.51,22.1c20.81,3.81,45.5,2.96,73.46-2.35
	c1.23-0.23,2.48-0.47,3.74-0.73c18.09-3.8,36.24-8.87,53.92-14.96c17.2-5.95,30.65-12.72,48.06-22.29c0.88-0.48,2.24-1.05,2.34-1.82
	c0-0.05,0-0.11,0-0.16c-0.06-31.59-0.11-63.19-0.17-94.78c-0.09-11.86,4.73-20.01,13.71-27.3c2.35-1.91,5.92-3.36,4.91-6.55
	C1159.13,310.42,1157.06,310.42,1155,310.69z M1348.2,277.93c-1.14-1.17-2.32-2.24-3.55-3.29c12.31-16.86,7.34-35.13,7.27-35.39
	c-0.29-1.01-1.11-1.79-2.14-2.04c-1.03-0.25-2.17,0.05-2.99,0.82c-15.4,14.13-38.25,18.01-54.45,19.05
	c-4.99-0.18-9.45-0.07-13.15,0.16c0-23.66,0-47.33,0-70.99c-0.1-11.88,4.73-19.72,13.71-26.47c2.35-1.77,5.92-2.99,4.91-6.24
	c-0.57-1.84-2.75-1.94-4.87-1.77c-32.64,10.14-42.81,18.88-49.07,24.11c-0.79,0.66-1.52,1.3-2.23,1.85
	c-0.36,0.29-0.77,0.45-1.19,0.51c-0.42,0.05-0.84-0.03-1.2-0.22c-0.68-0.39-1.38-0.8-2.14-1.27c-6.17-3.68-16.2-9.84-48.72-11.9
	c-2.12,0.34-4.28,0.99-4.86,2.97c-1.01,3.48,2.56,3.84,4.91,5.03c8.99,4.51,13.8,11.16,13.71,23.06c0,73.27,0,146.54,0,219.81
	c0.09,11.88-4.72,19.86-13.71,27.07c-2.35,1.89-5.91,3.31-4.91,6.5c0.52,1.67,2.37,1.77,4.29,1.58
	c33.1-11.77,43.36-20.26,49.65-25.63c0.79-0.66,1.52-1.29,2.23-1.85c0.72-0.59,1.67-0.7,2.39-0.29c0.68,0.39,1.38,0.81,2.15,1.27
	c6.2,3.83,16.3,9.73,49.29,13.28c1.92-0.26,3.75-0.86,4.28-2.63c1.01-3.43-2.55-3.97-4.91-5.29c-8.98-4.97-13.8-11.76-13.71-23.66
	c0-29.82,0-59.64,0-89.46c54.14-7.82,78.02,20.04,78.27,20.17c0.61,0.71,1.53,1.1,2.48,1.04c0.28-0.02,0.57-0.07,0.85-0.17
	c1.22-0.4,2.13-1.49,2.3-2.75C1366.41,310.7,1361.4,291.47,1348.2,277.93z M1470.44,428.62c1.01-3.3-2.55-4.3-4.91-5.9
	c-8.98-6.08-13.81-13.45-13.71-25.34c0-73.27,0-146.54,0-219.81c-0.1-11.88,4.73-19.15,13.71-24.79c2.35-1.49,5.92-2.25,4.91-5.63
	c-0.58-1.92-2.74-2.29-4.87-2.38c-32.63,6.14-42.81,13.88-49.07,18.37c-0.79,0.58-1.52,1.13-2.23,1.61
	c-0.36,0.26-0.77,0.38-1.19,0.38c-0.42,0-0.84-0.12-1.2-0.35c-0.68-0.44-1.38-0.97-2.14-1.5c-6.16-4.31-16.19-11.65-48.72-16.8
	c-2.12,0.15-4.29,0.57-4.86,2.52c-1,3.41,2.55,4.09,4.91,5.48c8.98,5.36,13.81,12.49,13.71,24.37c0,73.27,0,146.54,0,219.81
	c0.1,11.89-4.73,19.4-13.71,25.76c-2.36,1.67-5.91,2.77-4.91,6.05c0.52,1.71,2.37,1.99,4.29,1.97c33.1-8.62,43.36-15.93,49.65-20.64
	c0.79-0.56,1.52-1.14,2.23-1.61c0.73-0.5,1.67-0.52,2.39-0.03c0.68,0.45,1.39,0.97,2.15,1.51c6.19,4.53,16.31,11.43,49.29,19.04
	C1468.08,430.68,1469.92,430.33,1470.44,428.62z M658.81,543.12c0.18-0.03,1.53-0.5,1.71-0.54c18.78-5.48,32.76-15.79,41.54-30.32
	c16.37-27.15,8.77-58.89,8.43-60.22c-0.31-1.24-1.38-2.05-2.69-2.03c-1.29,0.03-2.59,0.87-3.21,2.11
	c-0.51,1.02-4.54,8.78-12.9,18.21c-13.98-15.37-33.92-7.19-34.13-7.12c-1.62,0.69-2.57,2.47-2.16,4.07
	c2.27,8.89,1.18,16.52-3.24,22.71c-8.48,11.87-26.86,15.59-32.39,16.4c-0.58,0.09-1.14,0.17-1.7,0.23c-0.22,0.03-0.41,0.14-0.61,0.2
	c-5.34,0.39-10.99,0.45-16.92,0.08c-17.64-2.67-20.43-18.05-20.76-24.89c0-61.41,0-122.82,0-184.22
	c-0.1-11.88,4.73-19.54,13.71-26.15c2.35-1.73,5.92-2.94,4.91-6.18c-0.58-1.88-2.75-1.96-4.87-1.83
	c-32.64,9.47-42.82,17.04-49.07,21.94c-0.79,0.6-1.53,1.17-2.23,1.68c-0.36,0.26-0.78,0.41-1.19,0.42c-0.42,0.03-0.84-0.09-1.2-0.32
	c-0.68-0.44-1.38-0.93-2.14-1.44c-6.16-4.32-16.19-10.87-48.72-17.27c-2.12,0.07-4.29,0.38-4.86,2.28
	c-1.01,3.33,2.55,4.22,4.91,5.72c8.98,5.78,13.81,12.95,13.71,24.86c0,73.27,0,146.54,0,219.81c0.09,11.88-4.73,19.31-13.71,25.27
	c-2.35,1.56-5.92,2.48-4.91,5.8c0.52,1.73,2.37,2.11,4.29,2.19c33.11-7.32,43.36-15.43,49.65-20.15c0.79-0.6,1.52-1.17,2.23-1.68
	c0.72-0.53,1.68-0.56,2.39-0.11c0.89,0.56,1.89,1.3,3.04,2.13c6.53,4.72,17.88,13.02,43.02,15.2
	C623.81,553.29,658.81,543.12,658.81,543.12z M1782.6,266.75c-4.49-16.86-11.66-33.68-16.63-50.49
	c-3.79-12.81-11.13-21.55-25.13-25.71c-18.69-6.13-37.38-11.56-56.06-16.36c-0.3-0.09-0.59-0.15-0.89-0.23
	c-32.34-6.18-41.61,1.87-46.93,6.15c-1.32,1.09-2.46,2.05-3.72,2.67c-0.35,0.18-0.78,0.23-1.2,0.14c-0.43-0.08-1.06-0.34-1.42-0.64
	c-1.25-1.1-2.4-2.49-3.71-4.1c-5.31-6.34-14.59-17.92-46.91-24.35c-0.24-0.03-0.47-0.07-0.7-0.09c-18.69-2.52-37.37-4.49-56.06-5.96
	c-14-1.53-21.34,4.14-25.13,15.36c-4.97,14.74-12.13,28.54-16.63,43.5c-1.57,5.22-6.15,11.39,0.89,16.23
	c5.44,3.73,17.13,0.25,21.66-5.7c3.49-4.59,7.06-9.03,10.86-13.35c15.06-17.16,35.54-21.29,57.33-19.53
	c19.19,1.61,21.1-0.16,21.3,13.91c0,70.14,0,140.28,0,210.43c0.09,11.91-4.72,18.46-13.71,23.11c-2.35,1.21-5.92,1.63-4.91,5.11
	c0.1,0.36,0.26,0.66,0.46,0.93c3.63,3.59,46.95-7.38,53.47-10.98c0.79-0.43,1.52-0.8,2.23-1.14c0.72-0.36,1.67-0.17,2.39,0.47
	c0.68,0.61,1.39,1.26,2.15,1.97c6.42,6.16,44.25,35.87,53.11,31.69c0.19-0.2,0.37-0.42,0.46-0.75c1.01-3.08-2.55-4.9-4.91-7.04
	c-8.98-8.14-13.8-16.57-13.71-28.45c0-70.14,0-140.28,0-210.43c0.21-13.97,2.11-11.48,21.3-5.59c21.79,6.78,42.27,19.12,57.33,42.47
	c3.8,5.87,7.36,11.81,10.86,17.83c4.54,7.8,16.22,16.19,21.66,14.78C1788.75,280.77,1784.17,272.63,1782.6,266.75z M378.9,332.17
	c-2.58-16.43-17.14-23.27-17.31-23.38c-0.74-0.33-1.54-0.36-2.22-0.06c-0.68,0.29-0.99,0.98-1.35,1.62
	c-3.52,6.43-10.36,10.23-17.64,12.37c0-4.53,0-9.06,0-13.59c0-48.17,0-96.34,0-144.51c-0.21-0.09-0.44-0.19-0.64-0.28
	c-0.17-0.08-0.33-0.15-0.5-0.22c-0.44-0.13-40.93-18.4-75.9-15.2c0,52.9,0,105.79,0,158.69c0,39.62,0,79.25,0,118.87
	c0,24.63,0,49.27,0,73.9c0.09,11.9-4.73,18.23-13.71,22.04c-2.35,0.99-5.91,1.04-4.91,4.63c0.49,1.74,2.13,2.58,3.91,3.11
	c33.41,0.58,43.71-5.48,50.02-8.8c0.79-0.44,1.52-0.83,2.23-1.19c0.72-0.37,1.67-0.2,2.39,0.41c0.68,0.59,1.39,1.22,2.15,1.9
	c6.22,5.46,16.37,14.91,49.66,25.68c1.78,0.08,3.42-0.2,3.91-1.77c1.01-3.24-2.55-4.51-4.91-6.31
	c-8.98-6.88-13.81-14.84-13.71-26.71c0-23.31,0-46.64,0-69.95c0-15.59,0-31.18,0-46.78c94.58,14.36,121.23,49.32,121.29,50.35
	c0.44,0.58,1.15,0.7,1.8,0.7c0.32,0,0.64-0.06,0.95-0.16c0.94-0.34,1.61-1.17,1.75-2.16c4.39-31.76-2.21-57.41-19.6-76.74
	C428.07,348.08,400.98,337.96,378.9,332.17z M721.21,67.21c-9-8.95-17.4-6.22-23.59,7.05c-6.75,14.49-15.33,26.94-25.67,37.12
	c-13.93-20.33-36.74-11.2-36.98-11.14c-1.65,0.68-2.6,2.5-2.14,4.12c2.2,7.73,1.35,14.6-2.5,20.39
	c-7.71,11.64-25.36,16.49-32.16,17.89c-41.63,5.18-82.62-0.22-122.35-13.34c-78.65-27.56-107.54-50.76-200.41-53.91
	c-18.95-0.64-35.9,3.35-50.79,7.57c-9.97,3.01-33.84,7.02-46.5-10.99c-0.56-0.78-1.36-1.35-2.19-1.65
	c-0.83-0.25-1.62-0.15-2.17,0.29c-0.16,0.15-14.8,12.41-0.48,37.57c0.97,1.69,2.15,3.15,3.44,4.37c-11,10.16-17.86,19.55-20.15,23.5
	c0,0-6.47,11.25-6.96,14.58c-2.27,5.83-4.48,31.84-22.42,46.74c-0.63,0.52-1,1.33-0.85,2.35c0.15,1.04,0.74,2.13,1.61,2.94
	c0.13,0.12,4.77,4.39,11.79,8.13c5.68,2.99,12.75,5.57,20.56,6.55c36.93,4.17,41.99-26.05,41.99-25.84
	c25.94-88.68,141.24-29.78,141.24-31.78c0.65,0.89,64.69,25.56,59.69,63.76c-0.11,0.89,0.16,1.81,0.75,2.53
	c0.59,0.72,1.45,1.18,2.35,1.25c0,0,0.03-0.01,0.06,0c1.37,0.16,27.07,1.12,39.98-23.04c49.2,20.03,100.85,25.55,153.67,19.39
	c54.94-6.42,101.69-31.14,127.81-88.9C737.73,112.87,736.02,81.9,721.21,67.21z"/>
<g>
	<path class="st2" d="M637.34,104.83c0.2,0,0.39,0,0.58,0c21.73,0,29.36,10.84,29.44,10.95c0.04,0.06,0.1,0.09,0.17,0.09
		c0.03,0,0.06-0.01,0.09-0.02c0.09-0.05,0.14-0.16,0.1-0.26c-2.15-5.65-8.1-9.37-17.21-10.76c-6.85-1.05-13.13-0.41-13.2-0.41
		c-0.11,0.01-0.19,0.11-0.18,0.22C637.14,104.75,637.23,104.83,637.34,104.83L637.34,104.83z"/>
	<path class="st2" d="M175.98,73.72c0.03-0.1-0.03-0.21-0.14-0.25c-0.1-0.04-0.21,0.01-0.25,0.11c-0.09,0.22-8.9,21.72,5.4,36.01
		c0.04,0.04,0.09,0.06,0.15,0.06c0.04,0,0.09-0.01,0.13-0.04c0.08-0.06,0.1-0.18,0.05-0.27C181.21,109.19,171.19,92.88,175.98,73.72
		z"/>
	<path class="st2" d="M1055.88,196.61c-5.97-0.1-12.53,0.07-19.5,0.48c-7.06,0.44-13.9,1.29-20.34,2.53c-0.01,0-0.02,0.01-0.04,0.01
		c-23.5,4.86-44.61,13.28-62.75,25.04c-18.04,11.7-33.31,25.4-45.38,40.73c-12.07,15.34-21.35,32.1-27.57,49.83
		c-6.22,17.74-9.27,35.47-9.07,52.71c0.21,17.26,3.69,33.68,10.33,48.81c6.67,15.2,17.02,28.09,30.79,38.31
		c13.75,10.2,31.2,17.28,51.87,21.04c4.94,0.9,10.22,1.54,15.69,1.9h0.01c0.11,0,0.2-0.08,0.21-0.19c0.01-0.11-0.07-0.21-0.19-0.22
		c-4.45-0.41-8.24-0.91-11.58-1.52c-20.61-3.75-38-10.8-51.7-20.96c-13.71-10.18-24.02-23.01-30.66-38.14
		c-6.62-15.08-10.09-31.45-10.3-48.64c-0.2-17.19,2.84-34.88,9.05-52.57c6.21-17.68,15.46-34.41,27.5-49.72
		c12.04-15.29,27.28-28.97,45.28-40.64c18.09-11.72,39.16-20.13,62.63-24.98c6.43-1.24,13.25-2.09,20.28-2.53
		c6.97-0.41,13.52-0.57,19.48-0.48c0.18-0.01,1.78-0.03,4.44,0.15c0.11,0.01,0.21-0.08,0.22-0.19c0.01-0.11-0.07-0.21-0.18-0.22
		C1059.53,196.57,1056.2,196.59,1055.88,196.61z"/>
	<ellipse class="st2" cx="541.56" cy="408.36" rx="1.49" ry="82.77"/>
	<ellipse class="st2" cx="302.29" cy="340.18" rx="1.49" ry="142.18"/>
	<ellipse class="st2" cx="782.92" cy="384.09" rx="1.49" ry="82.77"/>
	<ellipse class="st2" cx="1240.47" cy="301.32" rx="1.49" ry="82.77"/>
	<path class="st2" d="M1102.87,370.87c-0.82,0-1.49,13.08-1.49,29.21c0,16.13,0.67,29.21,1.49,29.21c0.82,0,1.49-13.08,1.49-29.21
		C1104.35,383.95,1103.69,370.87,1102.87,370.87z"/>
	<ellipse class="st2" cx="1632.04" cy="306.38" rx="1.49" ry="82.77"/>
	<ellipse class="st2" cx="1413.69" cy="286.27" rx="1.49" ry="82.77"/>
	<path class="st2" d="M721.06,131.03c-0.53,1.06-1.08,2.11-1.63,3.15c-1.8,3.26-5.18,8.81-10.47,15.45
		c-7.84,9.85-21.61,24.18-42.69,36.55c-23.69,13.9-51.58,22.54-82.91,25.67c-39.16,3.92-83.84-0.81-132.79-14.06
		c-0.11-0.03-0.22,0.03-0.25,0.14c-0.03,0.11,0.02,0.22,0.13,0.26c0.51,0.18,51.19,17.54,109.62,17.94c0.7,0.01,1.39,0.01,2.08,0.01
		c33.47,0,63.02-5.58,87.84-16.59c30.76-13.65,54.31-35.72,70.04-65.63c0.93-1.69,1.37-2.66,1.4-2.72c0.05-0.1,0-0.22-0.1-0.27
		C721.24,130.9,721.11,130.93,721.06,131.03z"/>
	<path class="st2" d="M414.18,356.03c-19.4-10.88-37.98-14.42-38.16-14.45c-0.11-0.02-0.21,0.05-0.24,0.15
		c-0.03,0.1,0.03,0.21,0.13,0.25c21.54,7.43,51.11,21.57,69.65,46.76c11.06,15.03,12.96,27.04,12.99,27.22
		c0.01,0.1,0.1,0.18,0.2,0.18c0,0,0.02,0,0.03,0c0.11-0.02,0.19-0.12,0.17-0.23v0c-2-13.81-7.62-26.31-16.68-37.15
		C435.03,370.06,425.58,362.42,414.18,356.03z"/>
	<path class="st2" d="M705.41,488.63c-0.11,0.46-0.22,0.91-0.33,1.36c-1.13,4.01-5.6,16.29-20.04,27.76
		c-10.28,8.16-23.53,14.33-39.38,18.34c-19.83,5-43.79,6.62-71.25,4.78h-0.01c-0.1,0-0.19,0.08-0.21,0.18
		c-0.01,0.11,0.06,0.21,0.17,0.23c0.2,0.03,13.96,2.25,32.47,2.25c8.28,0,17.51-0.44,26.9-1.72c17.86-2.44,32.8-7.39,44.4-14.7
		c14.12-8.91,23.32-21.36,27.35-37.04c0.24-0.85,0.33-1.33,0.33-1.36c0.02-0.11-0.05-0.22-0.16-0.24
		C705.55,488.44,705.44,488.52,705.41,488.63z"/>
	<path class="st2" d="M1337.66,314.52c-11.02-5.11-29.11-9.97-52.68-4.09c-0.11,0.03-0.17,0.13-0.15,0.24
		c0.02,0.1,0.11,0.18,0.24,0.16c0.42-0.07,42.29-6.62,70.79,16.63c0.04,0.03,0.08,0.05,0.13,0.05c0.05,0,0.11-0.02,0.15-0.06
		c0.07-0.08,0.08-0.2,0-0.28C1356.07,327.1,1349.61,320.06,1337.66,314.52z"/>
	<path class="st2" d="M399.64,108.66c0.03,0.01,0.06,0.02,0.06,0.02c0.11,0,0.18-0.04,0.22-0.12c0.05-0.1,0-0.23-0.1-0.27
		c-42.45-19.67-83.6-25.35-110.65-26.65c-29.31-1.41-48.83,1.87-49.03,1.9c-0.11,0.02-0.18,0.12-0.17,0.23
		c0.02,0.11,0.14,0.19,0.22,0.18c45.83-3.68,86.74,3.23,112.99,9.68C381.54,100.59,399.36,108.53,399.64,108.66L399.64,108.66z"/>
	<path class="st2" d="M942.45,313.35c-0.13-0.03-0.22,0.05-0.24,0.16c-10.07,42.8-4.27,74.46,2.36,93.48
		c7.19,20.62,16.91,31.25,17.01,31.36c0.04,0.04,0.09,0.06,0.15,0.06c0.05,0,0.09-0.02,0.13-0.05c0.08-0.07,0.1-0.2,0.03-0.28
		c-16.61-21.42-20.97-54.12-21.7-77.78c-0.79-25.65,2.39-46.5,2.42-46.71C942.63,313.47,942.56,313.37,942.45,313.35z"/>
	<path class="st2" d="M1151.31,198.59c-2.67,9.5-10.61,17.31-16.8,22.18c-6.72,5.29-12.89,8.36-12.95,8.39
		c-0.1,0.05-0.14,0.17-0.1,0.27c0.03,0.08,0.11,0.12,0.19,0.12c0,0,0.05,0,0.07-0.01c28.36-11.09,29.98-30.68,29.99-30.88
		c0.01-0.11-0.07-0.2-0.17-0.22C1151.43,198.41,1151.34,198.49,1151.31,198.59z"/>
	<path class="st2" d="M168.71,210.14c-7.2-0.36-18.82-2.3-33.37-9.44c-0.09-0.04-0.21-0.01-0.27,0.08
		c-0.06,0.09-0.03,0.21,0.06,0.27c0.2,0.14,16.44,11.11,33.18,11.11c4.32,0,8.67-0.73,12.79-2.57c0.1-0.04,0.15-0.16,0.11-0.26
		c-0.04-0.1-0.14-0.16-0.25-0.13C180.92,209.22,176.49,210.52,168.71,210.14z"/>
	<path class="st2" d="M1340.78,270.12c0.03,0.02,0.07,0.03,0.1,0.03c0.06,0,0.13-0.03,0.17-0.08c0.1-0.15,10.43-14.73,8.23-29.15
		c-0.01-0.1-0.1-0.18-0.2-0.18h-0.02c-0.11,0.01-0.19,0.11-0.18,0.22c0.01,0.1,0.52,10.57-8.18,28.89
		C1340.65,269.95,1340.69,270.07,1340.78,270.12z"/>
	<path class="st2" d="M1506.32,205.79c-0.04,0.1,0,0.22,0.1,0.27c0.03,0.02,0.06,0.02,0.09,0.02c0.07,0,0.14-0.04,0.18-0.1
		c0.11-0.2,11.79-20.16,34.55-23.76c0.11-0.02,0.18-0.11,0.17-0.22c-0.01-0.11-0.12-0.2-0.21-0.19
		C1540.95,181.81,1516.48,182.56,1506.32,205.79z"/>
	<path class="st2" d="M1443.79,177.28c-0.04-3.61,0.69-6.74,2.01-9.58c-2.8,3.64-4.29,7.89-4.23,13.07c0,71.26,0,142.52,0,213.79
		c-0.08,6.17,2,11.06,5.95,15.2c-2.47-3.61-3.79-7.73-3.72-12.67C1443.79,323.81,1443.79,250.54,1443.79,177.28z"/>
	<path class="st2" d="M1663.03,206.17c-0.04-3.61,0.69-6.74,2.01-9.58c-2.8,3.64-4.29,7.89-4.23,13.07c0,71.26,0,142.52,0,213.79
		c-0.08,6.17,2,11.06,5.95,15.2c-2.47-3.61-3.79-7.73-3.72-12.67C1663.03,352.71,1663.03,279.44,1663.03,206.17z"/>
	<path class="st2" d="M1270.51,186.38c-0.04-3.61,0.69-6.74,2.01-9.58c-2.8,3.64-4.3,7.89-4.23,13.07c0,71.26,0,142.52,0,213.79
		c-0.08,6.17,2,11.06,5.95,15.2c-2.47-3.61-3.79-7.73-3.72-12.67C1270.51,332.92,1270.51,259.64,1270.51,186.38z"/>
	<path class="st2" d="M812.89,264.43c-0.04-3.61,0.69-6.74,2.01-9.58c-2.8,3.64-4.29,7.89-4.23,13.07c0,71.26,0,142.52,0,213.79
		c-0.08,6.17,2,11.06,5.95,15.2c-2.47-3.61-3.79-7.73-3.72-12.67C812.89,410.97,812.89,337.7,812.89,264.43z"/>
	<path class="st2" d="M1130.56,437.82l2.34-0.78c0-33.56,0-64,0-97.56c-0.05-3.61,0.73-6.74,2.12-9.58
		c-2.95,3.64-4.53,7.89-4.46,13.07C1130.56,375.36,1130.56,405.42,1130.56,437.82z"/>
	<path class="st2" d="M332.93,171.7l-2.34-0.58c0,32.4,0,306.79,0,339.19c-0.07,5.19,1.51,9.43,4.46,13.07
		c-1.39-2.84-2.16-5.98-2.12-9.58C332.93,480.24,332.93,205.26,332.93,171.7z"/>
	<path class="st2" d="M573.59,283.87c-2.8,3.22-4.3,6.98-4.23,11.57c0,63.06,0,126.12,0,189.17c-0.08,5.46,2,9.79,5.95,13.45
		c-2.47-3.19-3.79-6.84-3.72-11.21c0-64.83,0-129.67,0-194.5C571.53,289.16,572.27,286.38,573.59,283.87z"/>
	<path class="st2" d="M1746.71,200.21c-5.84-3.86-11.23-5.85-11.28-5.86c-0.11-0.04-0.21,0.01-0.26,0.11
		c-0.04,0.1-0.01,0.21,0.08,0.26c15.36,8.96,23.44,19.15,25.56,23.29c0.04,0.07,0.11,0.11,0.18,0.11c0.02,0,0.05,0,0.07-0.01
		c0.1-0.04,0.15-0.14,0.13-0.25C1759,209.75,1752.1,203.79,1746.71,200.21z"/>
</g>
<g>
	<g>
		<g>
			<path class="st0" d="M744.86,224.83c2.8-0.44,5.6-0.89,8.4-1.33c0-8.26,0-16.52,0-24.79c9.08-1.46,18.16-2.95,27.24-4.48
				c0-2.22,0-4.44,0-6.66c-9.08,1.53-18.16,3.02-27.24,4.48c0-5.76,0-11.5,0-17.26c9.7-1.55,19.41-3.15,29.11-4.79
				c0-2.27,0-4.55,0-6.82c-12.51,2.12-25.01,4.17-37.52,6.12C744.86,187.81,744.86,206.32,744.86,224.83z"/>
			<path class="st0" d="M744.86,225.86c-0.24,0-0.48-0.09-0.67-0.25c-0.23-0.2-0.36-0.48-0.36-0.78V169.3
				c0-0.51,0.37-0.94,0.87-1.02c11.76-1.84,24.02-3.84,37.5-6.12c0.3-0.05,0.61,0.03,0.84,0.23c0.23,0.2,0.37,0.48,0.37,0.79V170
				c0,0.5-0.36,0.93-0.86,1.02c-9.42,1.59-18.83,3.15-28.25,4.66v15.17c8.68-1.39,17.36-2.82,26.04-4.28
				c0.31-0.05,0.61,0.03,0.84,0.23c0.23,0.2,0.37,0.48,0.37,0.79v6.66c0,0.5-0.37,0.93-0.86,1.02c-8.8,1.48-17.59,2.92-26.38,4.34
				v23.91c0,0.51-0.37,0.94-0.87,1.02l-8.4,1.33C744.97,225.86,744.92,225.86,744.86,225.86z M745.9,170.18v53.44l6.34-1v-23.91
				c0-0.51,0.37-0.94,0.87-1.02c8.79-1.41,17.58-2.85,26.38-4.33v-4.57c-8.68,1.46-17.37,2.89-26.05,4.28
				c-0.3,0.05-0.61-0.04-0.83-0.23c-0.23-0.2-0.36-0.48-0.36-0.79v-17.26c0-0.51,0.37-0.94,0.87-1.02
				c9.42-1.5,18.83-3.05,28.24-4.65v-4.73C768.66,166.54,757.04,168.43,745.9,170.18z"/>
		</g>
		<g>
			<path class="st0" d="M744.67,225.06v-55.93l0.16-0.03c11.92-1.86,24.19-3.87,37.51-6.12l0.23-0.04v7.22l-0.16,0.03
				c-10.02,1.7-19.75,3.3-28.96,4.77v16.86c8.24-1.32,17.08-2.77,27.02-4.44l0.22-0.04v7.06l-0.16,0.03
				c-8.93,1.51-18.04,3-27.08,4.45v24.79L744.67,225.06z M745.06,169.47v55.13l8.01-1.27v-24.79l0.16-0.03
				c9.04-1.45,18.15-2.94,27.08-4.45v-6.27c-9.94,1.67-18.78,3.12-27.02,4.44l-0.22,0.03v-17.65l0.16-0.03
				c9.2-1.46,18.94-3.07,28.95-4.76v-6.43C769.01,165.63,756.86,167.62,745.06,169.47z"/>
			<path class="st0" d="M744.67,226.09c-0.24,0-0.48-0.09-0.67-0.25c-0.23-0.2-0.36-0.48-0.36-0.78v-55.93
				c0-0.51,0.37-0.94,0.87-1.02c12.05-1.89,24.32-3.89,37.67-6.15c0.3-0.05,0.72,0.01,0.95,0.21c0.23,0.2,0.48,0.46,0.48,0.77v7.22
				c0,0.51-0.37,0.94-0.87,1.02c-9.86,1.67-19.3,3.23-28.25,4.66v14.77c7.89-1.26,16.35-2.65,25.82-4.24
				c0.3-0.05,0.72,0.01,0.95,0.21c0.23,0.2,0.48,0.46,0.48,0.77v7.06c0,0.51-0.37,0.94-0.87,1.02c-8.8,1.48-17.62,2.93-26.38,4.34
				v23.91c0,0.51-0.37,0.94-0.87,1.02l-8.79,1.39C744.78,226.09,744.72,226.09,744.67,226.09z M746.09,170.35v53.04l5.95-0.94
				v-23.91c0-0.51,0.37-0.94,0.87-1.02c8.9-1.43,17.72-2.87,26.37-4.33v-4.17c-9.46,1.58-17.92,2.97-25.82,4.24
				c-0.3,0.04-0.72-0.02-0.95-0.22c-0.23-0.2-0.47-0.47-0.47-0.77v-17.65c0-0.51,0.37-0.94,0.87-1.02c9.09-1.45,18.54-3,28.25-4.64
				v-4.33C768.65,166.74,757.16,168.61,746.09,170.35z"/>
		</g>
	</g>
	<g>
		<g>
			<path class="st0" d="M850.87,181.11c9.45-1.75,18.9-3.53,28.35-5.32c0-2.22,0-4.44,0-6.66c-9.45,1.79-18.9,3.57-28.35,5.32
				c0-5.54,0-11.08,0-16.63c10.04-1.86,20.09-3.75,30.13-5.66c0-2.28,0-4.55,0-6.82c-12.85,2.44-25.69,4.85-38.53,7.21
				c0,18.51,0,37.02,0,55.53c13.27-2.44,26.54-4.93,39.81-7.45c0-2.3,0-4.6,0-6.9c-10.47,1.99-20.94,3.96-31.4,5.9
				C850.87,193.45,850.87,187.28,850.87,181.11z"/>
			<path class="st0" d="M842.47,209.11c-0.24,0-0.47-0.08-0.66-0.24c-0.23-0.2-0.37-0.49-0.37-0.79v-55.53
				c0-0.5,0.36-0.93,0.85-1.02c12.84-2.36,25.69-4.77,38.53-7.2c0.29-0.06,0.61,0.02,0.85,0.22c0.24,0.2,0.37,0.49,0.37,0.79v6.82
				c0,0.5-0.35,0.92-0.84,1.01c-9.76,1.85-19.53,3.69-29.29,5.5v14.53c9.04-1.68,18.08-3.38,27.12-5.09
				c0.29-0.06,0.61,0.02,0.85,0.22c0.24,0.2,0.37,0.49,0.37,0.79v6.66c0,0.5-0.35,0.92-0.84,1.01c-9.17,1.74-18.34,3.46-27.51,5.16
				v16.41c10.06-1.87,20.12-3.76,30.18-5.67c0.3-0.06,0.61,0.02,0.85,0.22c0.24,0.2,0.37,0.49,0.37,0.79v6.9
				c0,0.5-0.35,0.92-0.84,1.01c-13.27,2.52-26.54,5.01-39.81,7.45C842.6,209.1,842.53,209.11,842.47,209.11z M843.5,153.4v53.43
				c12.58-2.31,25.16-4.67,37.74-7.06v-4.8c-10.06,1.91-20.12,3.8-30.18,5.67c-0.31,0.05-0.62-0.02-0.85-0.22
				c-0.24-0.2-0.37-0.49-0.37-0.79v-18.51c0-0.5,0.35-0.92,0.85-1.01c9.17-1.7,18.34-3.42,27.5-5.16v-4.56
				c-9.04,1.71-18.09,3.41-27.13,5.09c-0.31,0.06-0.62-0.02-0.85-0.22c-0.24-0.2-0.37-0.49-0.37-0.79v-16.63
				c0-0.5,0.35-0.92,0.85-1.01c9.76-1.81,19.52-3.65,29.29-5.5v-4.72C867.82,148.89,855.66,151.17,843.5,153.4z"/>
		</g>
		<g>
			<path class="st0" d="M842.28,208.31v-55.93l0.16-0.03c11.98-2.2,24.59-4.56,38.53-7.2l0.23-0.05v7.22l-0.16,0.03
				c-11.45,2.17-20.98,3.96-29.98,5.63v16.23c8.54-1.58,17.74-3.31,28.12-5.27l0.23-0.05v7.06l-0.16,0.03
				c-10.24,1.94-19.46,3.67-28.19,5.29v18.11c10.35-1.92,20.83-3.89,31.17-5.85l0.23-0.05v7.3l-0.16,0.03
				c-14.8,2.81-27.83,5.25-39.81,7.45L842.28,208.31z M842.66,152.71v55.14c11.88-2.18,24.78-4.6,39.42-7.38v-6.51
				c-10.35,1.97-20.83,3.93-31.18,5.85l-0.23,0.05v-18.91l0.16-0.03c8.73-1.62,17.95-3.35,28.19-5.29v-6.27
				c-10.38,1.97-19.59,3.69-28.12,5.27l-0.23,0.05v-17.03l0.16-0.03c8.99-1.67,18.52-3.46,29.97-5.63v-6.43
				C867.02,148.19,854.54,150.53,842.66,152.71z"/>
			<path class="st0" d="M842.46,209.3c-0.26,0-0.55-0.07-0.73-0.22c-0.24-0.2-0.49-0.47-0.49-0.77v-55.93
				c0-0.51,0.37-0.94,0.87-1.02c12.12-2.22,24.73-4.58,38.66-7.23c0.3-0.05,0.73,0,0.97,0.2c0.24,0.2,0.49,0.46,0.49,0.77v7.22
				c0,0.49-0.35,0.92-0.84,1.01c-11.25,2.13-20.55,3.88-29.29,5.5v14.13c8.19-1.52,17.01-3.17,26.89-5.04c0.3-0.05,0.73,0,0.97,0.2
				c0.24,0.2,0.49,0.47,0.49,0.77v7.06c0,0.49-0.35,0.92-0.84,1.01c-10.06,1.91-19.03,3.59-27.51,5.17v16.01
				c9.95-1.85,20.02-3.74,29.95-5.63c0.3-0.05,0.73,0,0.97,0.2c0.24,0.2,0.49,0.46,0.49,0.77v7.3c0,0.49-0.35,0.92-0.84,1.01
				c-14.97,2.84-27.99,5.27-39.98,7.48C842.62,209.29,842.54,209.3,842.46,209.3z M843.7,153.57v53.04
				c11.31-2.08,23.56-4.37,37.35-6.99v-4.41c-9.95,1.89-20.02,3.78-29.95,5.62c-0.3,0.06-0.73,0-0.96-0.2
				c-0.24-0.2-0.49-0.47-0.49-0.77v-18.91c0-0.51,0.37-0.94,0.87-1.02c8.63-1.6,17.59-3.27,27.49-5.15v-4.17
				c-9.89,1.87-18.7,3.52-26.9,5.04c-0.29,0.06-0.72,0-0.96-0.2c-0.24-0.2-0.49-0.47-0.49-0.77v-17.03c0-0.51,0.37-0.94,0.87-1.02
				c8.91-1.65,18.19-3.39,29.27-5.49v-4.33C866.79,149.28,854.96,151.5,843.7,153.57z"/>
		</g>
	</g>
	<g>
		<g>
			<path class="st0" d="M973.52,156.16c-1.69-0.88-3.59-1.48-5.68-1.8c-2.1-0.33-4.16-0.58-6.2-0.76c-1.7-0.19-3.29-0.39-4.8-0.59
				c-1.5-0.22-2.8-0.56-3.9-1.05c-1.1-0.5-1.98-1.19-2.63-2.07c-0.65-0.89-0.98-2.1-0.97-3.62c0-1.57,0.35-2.99,1.06-4.25
				c0.7-1.26,1.63-2.38,2.76-3.36c1.13-0.97,2.39-1.78,3.78-2.39c1.39-0.61,2.76-1.05,4.12-1.31c2.55-0.5,4.83-0.47,6.88,0.12
				c2.03,0.56,3.65,1.49,4.84,2.78c1.98-2.16,3.96-4.33,5.94-6.49c-1.87-1.56-4.33-2.64-7.38-3.19c-3.06-0.55-6.34-0.49-9.85,0.19
				c-2.49,0.48-4.97,1.26-7.43,2.35c-2.46,1.08-4.67,2.46-6.62,4.15c-1.95,1.68-3.54,3.64-4.75,5.86c-1.22,2.23-1.82,4.72-1.82,7.49
				c0,2.57,0.45,4.62,1.36,6.17c0.9,1.56,2.09,2.77,3.57,3.66c1.47,0.9,3.14,1.54,5.01,1.93c1.87,0.39,3.76,0.67,5.69,0.82
				c1.92,0.19,3.75,0.39,5.47,0.62c1.73,0.2,3.24,0.58,4.54,1.12c1.3,0.53,2.34,1.29,3.1,2.26c0.77,0.98,1.15,2.3,1.15,3.98
				c0,1.68-0.37,3.17-1.1,4.48c-0.74,1.32-1.68,2.48-2.84,3.5c-1.16,1.02-2.45,1.85-3.86,2.47c-1.41,0.65-2.83,1.09-4.25,1.38
				c-2.77,0.54-5.35,0.45-7.72-0.3c-2.37-0.76-4.27-1.94-5.69-3.6c-2.18,2.12-4.36,4.25-6.54,6.37c2.32,2.23,5.25,3.65,8.79,4.33
				c3.54,0.68,7.2,0.65,10.99-0.1c2.66-0.54,5.24-1.36,7.76-2.54c2.52-1.16,4.74-2.66,6.66-4.39c1.93-1.76,3.46-3.82,4.63-6.15
				c1.16-2.34,1.74-4.95,1.74-7.83c0-2.78-0.54-4.96-1.61-6.55C976.61,158.26,975.22,157.03,973.52,156.16z"/>
			<path class="st0" d="M952.66,188.93c-1.81,0-3.6-0.17-5.35-0.5c-3.81-0.73-6.86-2.24-9.31-4.6c-0.2-0.19-0.32-0.46-0.32-0.74
				c0-0.28,0.11-0.55,0.31-0.74l6.54-6.37c0.21-0.2,0.51-0.31,0.77-0.29c0.28,0.01,0.55,0.14,0.74,0.36
				c1.28,1.5,2.99,2.57,5.22,3.28c2.19,0.69,4.61,0.78,7.21,0.27c1.43-0.29,2.74-0.72,4.01-1.3c1.33-0.59,2.54-1.37,3.61-2.31
				c1.09-0.95,1.95-2,2.63-3.23c0.66-1.18,0.98-2.49,0.97-3.98c0-1.44-0.31-2.56-0.93-3.34c-0.65-0.82-1.55-1.48-2.68-1.94
				c-1.24-0.52-2.68-0.87-4.26-1.05c-1.74-0.23-3.55-0.43-5.46-0.61c-1.87-0.15-3.82-0.43-5.79-0.84c-1.98-0.41-3.78-1.1-5.34-2.06
				c-1.62-0.98-2.94-2.33-3.92-4.02c-1-1.72-1.49-3.91-1.49-6.69c0-2.93,0.66-5.62,1.95-7.99c1.27-2.32,2.94-4.39,4.99-6.15
				c2.01-1.74,4.32-3.19,6.88-4.32c2.51-1.11,5.08-1.92,7.65-2.42c3.59-0.7,7.04-0.77,10.23-0.19c3.21,0.58,5.85,1.73,7.86,3.42
				c0.22,0.18,0.35,0.44,0.37,0.72c0.02,0.28-0.08,0.56-0.27,0.77l-5.94,6.49c-0.2,0.21-0.47,0.33-0.76,0.33h0
				c-0.29,0-0.56-0.12-0.76-0.33c-1.05-1.15-2.52-1.98-4.35-2.49c-1.87-0.54-4.02-0.57-6.4-0.1c-1.27,0.24-2.58,0.66-3.9,1.24
				c-1.27,0.55-2.45,1.3-3.52,2.22c-1.04,0.91-1.89,1.94-2.53,3.08c-0.62,1.1-0.93,2.35-0.93,3.74c0,1.29,0.26,2.31,0.77,3.01
				c0.54,0.74,1.27,1.31,2.23,1.74c0.98,0.43,2.2,0.76,3.62,0.96c1.49,0.2,3.08,0.4,4.77,0.59c2.12,0.18,4.23,0.44,6.24,0.76
				c2.19,0.33,4.21,0.97,5.99,1.9c1.85,0.95,3.38,2.31,4.54,4.04c1.2,1.77,1.79,4.1,1.79,7.12c0,3.01-0.62,5.8-1.85,8.29
				c-1.22,2.46-2.85,4.63-4.85,6.46c-2.09,1.88-4.42,3.41-6.93,4.57c-2.53,1.18-5.14,2.04-7.99,2.61
				C956.66,188.73,954.64,188.93,952.66,188.93z M940.23,183.05c2.02,1.67,4.47,2.77,7.47,3.35c3.4,0.65,6.96,0.62,10.6-0.09
				c2.68-0.54,5.15-1.35,7.53-2.46c2.33-1.07,4.48-2.49,6.41-4.23c1.81-1.65,3.28-3.62,4.39-5.84c1.09-2.2,1.64-4.68,1.63-7.37
				c0-2.56-0.48-4.57-1.43-5.97c-0.97-1.45-2.24-2.57-3.77-3.36c0,0,0,0,0,0c-1.59-0.83-3.39-1.4-5.36-1.69
				c-1.97-0.31-4.03-0.56-6.13-0.75c-1.74-0.2-3.34-0.4-4.85-0.6c-1.64-0.23-3-0.6-4.18-1.12c-1.27-0.58-2.3-1.39-3.05-2.41
				c-0.78-1.07-1.18-2.49-1.18-4.23c0-1.74,0.4-3.35,1.2-4.75c0.75-1.34,1.75-2.56,2.98-3.63c1.23-1.06,2.59-1.92,4.04-2.55
				c1.45-0.64,2.91-1.11,4.34-1.38c2.7-0.53,5.18-0.48,7.35,0.14c1.78,0.49,3.29,1.26,4.51,2.3l4.46-4.87
				c-1.62-1.1-3.64-1.88-6.04-2.32c-2.94-0.54-6.12-0.47-9.46,0.19c-2.42,0.47-4.84,1.23-7.21,2.28c-2.37,1.04-4.51,2.39-6.36,3.99
				c-1.85,1.6-3.37,3.48-4.52,5.58c-1.14,2.09-1.69,4.38-1.7,7c0,2.37,0.41,4.27,1.21,5.65c0.82,1.41,1.87,2.48,3.21,3.29
				c1.36,0.83,2.93,1.44,4.68,1.8c1.89,0.39,3.76,0.66,5.56,0.8c1.96,0.19,3.79,0.39,5.53,0.62c1.76,0.2,3.38,0.6,4.8,1.19
				c1.46,0.6,2.65,1.47,3.52,2.58c0.91,1.15,1.37,2.7,1.37,4.61c0,1.83-0.41,3.51-1.23,4.99c-0.79,1.41-1.82,2.68-3.07,3.77
				c-1.22,1.08-2.61,1.97-4.12,2.64c-1.4,0.65-2.87,1.12-4.46,1.45c-2.94,0.57-5.71,0.47-8.24-0.33c-2.17-0.69-3.99-1.74-5.41-3.11
				L940.23,183.05z"/>
		</g>
		<g>
			<path class="st0" d="M952.67,188.09c-1.77,0-3.5-0.16-5.2-0.49c-3.64-0.7-6.55-2.13-8.89-4.38l-0.14-0.14l0.14-0.14
				c2.18-2.12,4.36-4.25,6.54-6.37l0.15-0.14l0.14,0.16c1.37,1.6,3.25,2.79,5.6,3.54c2.32,0.73,4.89,0.83,7.62,0.3
				c1.5-0.31,2.88-0.75,4.2-1.36c1.39-0.62,2.67-1.44,3.81-2.45c1.16-1.02,2.08-2.14,2.8-3.45c0.73-1.31,1.08-2.75,1.08-4.39
				c0-1.65-0.36-2.91-1.1-3.85c-0.73-0.94-1.75-1.68-3.02-2.2c-1.31-0.54-2.82-0.92-4.48-1.1c-1.53-0.2-3.27-0.4-5.47-0.62
				c-1.85-0.14-3.77-0.42-5.71-0.82c-1.89-0.39-3.59-1.05-5.07-1.95c-1.5-0.91-2.72-2.16-3.63-3.73c-0.93-1.58-1.38-3.63-1.38-6.27
				c0-2.8,0.62-5.34,1.85-7.59c1.21-2.23,2.83-4.21,4.8-5.92c1.95-1.69,4.19-3.09,6.67-4.18c2.45-1.08,4.96-1.88,7.47-2.36
				c3.5-0.69,6.84-0.75,9.92-0.19c3.06,0.56,5.58,1.65,7.47,3.24l0.16,0.13l-0.14,0.15c-1.34,1.46-2.68,2.93-4.02,4.39l-2.07,2.26
				l-0.14-0.16c-1.16-1.27-2.76-2.18-4.74-2.73c-1.98-0.57-4.26-0.61-6.78-0.11c-1.32,0.25-2.7,0.69-4.08,1.3
				c-1.34,0.59-2.6,1.38-3.73,2.35c-1.11,0.97-2.03,2.08-2.71,3.31c-0.69,1.22-1.04,2.62-1.04,4.15c0,1.48,0.32,2.66,0.94,3.5
				c0.63,0.85,1.49,1.53,2.56,2.01c1.06,0.47,2.35,0.81,3.85,1.03c1.52,0.21,3.13,0.41,4.79,0.59c2.18,0.19,4.21,0.44,6.2,0.76
				c2.1,0.32,4.03,0.93,5.74,1.81l0,0c1.73,0.89,3.15,2.15,4.24,3.77c1.09,1.62,1.64,3.86,1.64,6.66c0,2.88-0.59,5.55-1.76,7.92
				c-1.18,2.37-2.75,4.46-4.67,6.21c-2.02,1.82-4.28,3.31-6.71,4.43c-2.46,1.15-5.02,1.99-7.81,2.55
				C956.56,187.9,954.6,188.09,952.67,188.09z M939,183.08c2.25,2.11,5.05,3.47,8.54,4.14c3.5,0.67,7.17,0.64,10.91-0.1
				c2.75-0.56,5.28-1.38,7.72-2.52c2.4-1.11,4.63-2.57,6.62-4.36c1.88-1.72,3.42-3.77,4.58-6.09c1.14-2.32,1.72-4.92,1.72-7.74
				c0-2.72-0.53-4.89-1.57-6.44c-1.05-1.56-2.42-2.78-4.09-3.64l0,0c-1.67-0.86-3.56-1.46-5.62-1.77c-1.99-0.32-4.01-0.57-6.18-0.76
				c-1.67-0.19-3.29-0.39-4.81-0.59c-1.56-0.22-2.85-0.57-3.96-1.06c-1.13-0.51-2.04-1.23-2.71-2.14c-0.67-0.91-1.01-2.17-1.01-3.73
				c0-1.6,0.36-3.06,1.08-4.34c0.71-1.26,1.65-2.41,2.8-3.41c1.16-1,2.45-1.81,3.83-2.42c1.41-0.62,2.81-1.07,4.16-1.32
				c2.58-0.51,4.92-0.47,6.97,0.12c1.97,0.54,3.58,1.45,4.78,2.69l1.78-1.95c1.29-1.41,2.59-2.82,3.88-4.24
				c-1.83-1.47-4.23-2.49-7.14-3.02c-3.05-0.54-6.33-0.48-9.77,0.19c-2.48,0.48-4.96,1.26-7.38,2.34c-2.44,1.07-4.66,2.46-6.57,4.12
				c-1.93,1.67-3.52,3.62-4.71,5.81c-1.19,2.18-1.8,4.67-1.8,7.39c0,2.57,0.44,4.55,1.33,6.07c0.89,1.53,2.04,2.7,3.5,3.59
				c1.44,0.88,3.1,1.52,4.95,1.91c1.92,0.4,3.83,0.67,5.66,0.81c2.21,0.22,3.95,0.41,5.49,0.62c1.7,0.19,3.24,0.57,4.59,1.13
				c1.33,0.55,2.4,1.33,3.18,2.32c0.8,1.01,1.19,2.35,1.19,4.1c0,1.69-0.38,3.23-1.13,4.58c-0.75,1.34-1.7,2.5-2.89,3.55
				c-1.17,1.03-2.49,1.88-3.91,2.51c-1.35,0.62-2.75,1.08-4.29,1.39c-2.79,0.56-5.43,0.45-7.82-0.3c-2.34-0.75-4.24-1.92-5.64-3.5
				C943.17,179.03,941.08,181.05,939,183.08z"/>
			<path class="st0" d="M952.67,189.13c-1.82,0-3.64-0.17-5.4-0.51c-3.84-0.74-6.92-2.26-9.41-4.65c-0.2-0.19-0.39-0.53-0.39-0.81
				c0-0.28,0.04-0.62,0.24-0.81l6.68-6.5c0.21-0.2,0.63-0.36,0.84-0.37c0.28,0.01,0.63,0.07,0.81,0.29c1.39,1.62,3.11,2.7,5.27,3.39
				c2.15,0.68,4.55,0.77,7.11,0.27c1.42-0.29,2.72-0.71,3.97-1.28c1.3-0.58,2.5-1.35,3.56-2.28c1.07-0.94,1.92-1.98,2.58-3.17
				c0.64-1.15,0.95-2.42,0.95-3.89c0-1.41-0.29-2.46-0.88-3.22c-0.63-0.8-1.5-1.43-2.61-1.89c-1.23-0.51-2.64-0.86-4.21-1.03
				c-1.54-0.2-3.27-0.4-5.46-0.62c-1.86-0.15-3.82-0.43-5.81-0.84c-2-0.42-3.82-1.12-5.4-2.08c-1.65-1-2.99-2.38-3.98-4.09
				c-1.02-1.73-1.52-3.96-1.52-6.79c0-2.97,0.67-5.69,1.98-8.08c1.27-2.34,2.96-4.42,5.03-6.2c2.03-1.75,4.36-3.21,6.93-4.35
				c2.52-1.11,5.11-1.93,7.69-2.43c3.62-0.71,7.08-0.77,10.3-0.2c3.24,0.59,5.92,1.76,7.96,3.46c0.21,0.18,0.42,0.5,0.44,0.78
				c0.02,0.28,0,0.62-0.18,0.83l-6.23,6.81c-0.2,0.21-0.47,0.33-0.76,0.33h-0.01c-0.29,0-0.56-0.12-0.75-0.33
				c-1.18-1.28-2.61-2.1-4.41-2.6c-1.84-0.53-3.96-0.55-6.31-0.1c-1.25,0.24-2.55,0.65-3.86,1.23c-1.25,0.55-2.42,1.29-3.47,2.19
				c-1.03,0.9-1.87,1.91-2.49,3.03c-0.61,1.07-0.91,2.3-0.91,3.64c0,1.25,0.25,2.23,0.74,2.9c0.52,0.7,1.25,1.27,2.15,1.68
				c0.95,0.42,2.16,0.74,3.57,0.95c1.5,0.21,3.1,0.41,4.76,0.59c2.11,0.18,4.17,0.43,6.25,0.76c2.21,0.34,4.25,0.98,6.06,1.92
				c1.87,0.96,3.43,2.34,4.62,4.11c1.21,1.79,1.82,4.23,1.82,7.24c0,3.04-0.62,5.86-1.86,8.38c-1.24,2.49-2.89,4.68-4.9,6.51
				c-2.11,1.89-4.45,3.44-6.98,4.6c-2.55,1.19-5.18,2.05-8.03,2.62C956.69,188.92,954.64,189.13,952.67,189.13z M940.53,183.04
				c1.96,1.57,4.33,2.61,7.22,3.17c3.37,0.64,6.91,0.61,10.52-0.09c2.67-0.54,5.12-1.34,7.48-2.44c2.31-1.07,4.45-2.48,6.36-4.2
				c1.78-1.63,3.25-3.58,4.34-5.79c1.07-2.17,1.62-4.62,1.61-7.28c0-2.51-0.47-4.48-1.4-5.86c-0.95-1.42-2.2-2.53-3.7-3.29
				c-1.58-0.82-3.36-1.38-5.31-1.68c-1.95-0.31-3.95-0.56-6.12-0.75c-1.7-0.19-3.33-0.39-4.85-0.6c-1.65-0.24-3.04-0.61-4.24-1.14
				c-1.29-0.59-2.34-1.42-3.12-2.47c-0.8-1.09-1.21-2.55-1.21-4.34c0-1.78,0.41-3.41,1.22-4.85c0.76-1.36,1.78-2.6,3.02-3.68
				c1.25-1.08,2.63-1.94,4.1-2.58c1.49-0.66,2.97-1.13,4.38-1.39c2.74-0.54,5.24-0.49,7.44,0.14c1.73,0.47,3.22,1.22,4.43,2.22
				l4.18-4.57c-1.56-1.02-3.5-1.75-5.78-2.16c-2.92-0.52-6.07-0.46-9.39,0.19c-2.41,0.47-4.82,1.23-7.16,2.27
				c-2.35,1.03-4.48,2.37-6.32,3.96c-1.84,1.59-3.35,3.44-4.48,5.52c-1.11,2.03-1.67,4.35-1.68,6.9c0,2.37,0.39,4.19,1.19,5.55
				c0.8,1.38,1.83,2.43,3.14,3.23c1.34,0.82,2.89,1.42,4.62,1.78c1.86,0.39,3.73,0.65,5.53,0.8c2.24,0.22,4,0.42,5.54,0.62
				c1.78,0.2,3.42,0.61,4.85,1.2c1.49,0.61,2.7,1.5,3.59,2.63c0.95,1.2,1.41,2.75,1.41,4.73c0,1.86-0.42,3.57-1.25,5.08
				c-0.82,1.45-1.83,2.7-3.11,3.83c-1.25,1.1-2.65,2-4.17,2.67c-1.4,0.65-2.88,1.13-4.5,1.46c-2.97,0.59-5.77,0.48-8.33-0.33
				c-2.13-0.68-3.92-1.7-5.35-3.03L940.53,183.04z"/>
		</g>
	</g>
	<g>
		<g>
			<path class="st0" d="M1032.6,122.9c6.42-1.22,12.84-2.43,19.27-3.63c0,16.24,0,32.47,0,48.71c2.8-0.52,5.6-1.05,8.4-1.57
				c0-16.24,0-32.47,0-48.71c6.42-1.19,12.84-2.37,19.27-3.54c0-2.27,0-4.55,0-6.82c-15.65,2.84-31.29,5.76-46.94,8.73
				C1032.6,118.35,1032.6,120.62,1032.6,122.9z"/>
			<path class="st0" d="M1051.86,169.01c-0.24,0-0.47-0.08-0.66-0.24c-0.24-0.2-0.37-0.49-0.37-0.79v-47.47
				c-6.01,1.12-12.03,2.26-18.04,3.4c-0.3,0.06-0.62-0.02-0.85-0.22c-0.24-0.2-0.37-0.49-0.37-0.79v-6.82c0-0.5,0.35-0.92,0.84-1.01
				c17.09-3.24,32.45-6.1,46.94-8.73c0.3-0.05,0.61,0.03,0.85,0.22s0.37,0.49,0.37,0.79v6.82c0,0.5-0.36,0.93-0.85,1.02
				c-6.14,1.11-12.28,2.24-18.42,3.38v47.85c0,0.5-0.35,0.92-0.84,1.01l-8.4,1.57C1051.99,169.01,1051.92,169.01,1051.86,169.01z
				 M1051.86,118.24c0.24,0,0.47,0.08,0.66,0.24c0.24,0.2,0.37,0.49,0.37,0.79v47.47l6.34-1.18V117.7c0-0.5,0.35-0.92,0.85-1.01
				c6.14-1.14,12.28-2.27,18.42-3.38v-4.73c-13.9,2.53-28.6,5.26-44.87,8.35v4.72c6.01-1.14,12.03-2.28,18.04-3.39
				C1051.73,118.24,1051.8,118.24,1051.86,118.24z"/>
		</g>
		<g>
			<path class="st0" d="M1051.67,168.21v-48.71c-6.13,1.14-12.54,2.34-19.04,3.58l-0.23,0.05v-7.22l0.16-0.03
				c17.23-3.27,32.58-6.12,46.94-8.73l0.23-0.04v7.22l-0.16,0.03c-6.27,1.14-12.7,2.32-19.11,3.51v48.71l-1.3,0.24
				c-2.42,0.45-4.84,0.9-7.27,1.35L1051.67,168.21z M1052.06,119.04v48.71c2.34-0.44,4.69-0.87,7.03-1.31l0.98-0.18v-48.71
				l0.16-0.03c6.41-1.19,12.83-2.37,19.11-3.51v-6.43c-14.25,2.59-29.48,5.42-46.55,8.66v6.43c6.5-1.24,12.91-2.44,19.04-3.58
				L1052.06,119.04z"/>
			<path class="st0" d="M1051.85,169.2c-0.26,0-0.55-0.07-0.73-0.22c-0.24-0.2-0.49-0.47-0.49-0.77v-47.46
				c-5.76,1.07-11.74,2.2-17.81,3.35c-0.3,0.06-0.73,0-0.97-0.2c-0.24-0.2-0.49-0.46-0.49-0.77v-7.22c0-0.49,0.35-0.92,0.84-1.01
				c17.39-3.3,32.75-6.15,47.11-8.76c0.29-0.05,0.72,0,0.96,0.2c0.23,0.2,0.48,0.47,0.48,0.77v7.22c0,0.51-0.37,0.94-0.87,1.02
				c-6.13,1.11-12.27,2.24-18.4,3.38v47.85c0,0.5-0.35,0.93-0.85,1.01l-8.56,1.6C1052.01,169.2,1051.93,169.2,1051.85,169.2z
				 M1051.87,118.05c0.26,0,0.55,0.07,0.73,0.22c0.24,0.2,0.49,0.47,0.49,0.77v47.46l5.95-1.11v-47.85c0-0.5,0.36-0.93,0.85-1.02
				c6.26-1.16,12.41-2.29,18.41-3.38v-4.33c-14.05,2.56-28.63,5.27-44.48,8.28v4.33c6.09-1.16,12.07-2.28,17.82-3.35
				C1051.71,118.05,1051.79,118.05,1051.87,118.05z"/>
		</g>
	</g>
	<g>
		<g>
			<path class="st0" d="M1136.9,152.85c2.8-0.47,5.6-0.93,8.4-1.39c0-18.51,0-37.02,0-55.53c-2.8,0.46-5.6,0.92-8.4,1.39
				C1136.9,115.83,1136.9,134.34,1136.9,152.85z"/>
			<path class="st0" d="M1136.91,153.88c-0.24,0-0.48-0.08-0.67-0.24c-0.23-0.2-0.37-0.49-0.37-0.79V97.32
				c0-0.5,0.36-0.93,0.86-1.02c2.73-0.46,5.46-0.91,8.18-1.36c0.3-0.04,0.72,0.02,0.95,0.21c0.23,0.2,0.48,0.47,0.48,0.77v55.53
				c0,0.51-0.37,0.94-0.87,1.02l-8.4,1.39C1137.02,153.88,1136.96,153.88,1136.91,153.88z M1137.94,98.19v53.44l6.34-1.05V97.14
				C1142.08,97.5,1140.01,97.84,1137.94,98.19z"/>
		</g>
		<g>
			<path class="st0" d="M1136.71,153.08V97.16l0.16-0.03c2.66-0.45,5.31-0.89,7.97-1.32l0.66-0.11v55.92l-0.16,0.03
				c-1.81,0.3-3.63,0.6-5.44,0.9L1136.71,153.08z M1137.1,97.48v55.14l2.74-0.46c1.76-0.29,3.52-0.58,5.28-0.87V96.16l-0.21,0.03
				C1142.3,96.62,1139.7,97.05,1137.1,97.48z"/>
			<path class="st0" d="M1136.71,154.11c-0.24,0-0.48-0.08-0.67-0.25c-0.23-0.2-0.37-0.48-0.37-0.79V97.16
				c0-0.51,0.37-0.94,0.87-1.02c2.74-0.46,5.33-0.89,7.93-1.32l0.87-0.14c0.29-0.05,0.6,0.04,0.83,0.24
				c0.23,0.2,0.36,0.48,0.36,0.78v55.92c0,0.5-0.35,0.92-0.85,1.01l-8.81,1.46C1136.82,154.11,1136.77,154.11,1136.71,154.11z
				 M1138.13,98.36v53.04l5.95-0.98V97.37L1138.13,98.36z"/>
		</g>
	</g>
	<g>
		<g>
			<path class="st0" d="M1229.5,128.9c-0.09,0.01-0.17,0.02-0.25,0.03c-6.03-14.37-12.05-28.72-18.08-43.05
				c-3.11,0.43-6.22,0.87-9.34,1.32c7.81,17.39,15.62,34.82,23.43,52.29c2.6-0.35,5.21-0.68,7.81-1.02
				c7.87-19.53,15.73-39.02,23.6-58.45c-3.03,0.36-6.05,0.72-9.08,1.09C1241.56,97.02,1235.53,112.95,1229.5,128.9z"/>
			<path class="st0" d="M1225.26,140.53c-0.4,0-0.77-0.24-0.94-0.61c-7.81-17.47-15.62-34.9-23.43-52.29
				c-0.13-0.3-0.12-0.64,0.04-0.92c0.16-0.28,0.44-0.48,0.76-0.52c3.12-0.45,6.23-0.89,9.34-1.32c0.46-0.06,0.91,0.19,1.09,0.62
				c5.73,13.63,11.47,27.29,17.2,40.96c5.76-15.25,11.53-30.49,17.29-45.7c0.14-0.36,0.46-0.61,0.84-0.66
				c3.03-0.37,6.06-0.73,9.08-1.09c0.35-0.05,0.72,0.11,0.94,0.4c0.22,0.29,0.27,0.68,0.14,1.01
				c-7.86,19.44-15.73,38.92-23.59,58.45c-0.14,0.35-0.45,0.59-0.82,0.64l-1.5,0.19c-2.1,0.27-4.2,0.55-6.31,0.83
				C1225.35,140.53,1225.3,140.53,1225.26,140.53z M1203.34,88.04c7.52,16.74,15.04,33.52,22.55,50.34c1.85-0.25,3.7-0.49,5.55-0.73
				l0.9-0.12c7.57-18.8,15.14-37.56,22.72-56.27c-2.24,0.27-4.48,0.53-6.72,0.81c-5.95,15.71-11.91,31.45-17.86,47.2
				c-0.13,0.35-0.45,0.61-0.82,0.66l-0.14-1.02l0.11,1.03c-0.01,0-0.25,0.03-0.27,0.03c-0.46,0.04-0.88-0.21-1.05-0.63
				c-5.92-14.13-11.85-28.23-17.77-42.31C1208.13,87.35,1205.74,87.69,1203.34,88.04z M1229.5,128.9h0.03H1229.5z"/>
		</g>
		<g>
			<path class="st0" d="M1225.14,139.71l-0.06-0.13c-6.8-15.22-14.24-31.84-23.42-52.29l-0.11-0.24l0.26-0.04
				c3.11-0.45,6.22-0.89,9.33-1.32l0.15-0.02l0.06,0.14c6.01,14.27,12.01,28.58,18.02,42.9c6.01-15.91,12.02-31.8,18.03-47.66
				l0.04-0.11l0.12-0.02c3.03-0.37,6.06-0.73,9.08-1.09l0.33-0.04l-0.13,0.3c-7.39,18.27-15.11,37.39-23.6,58.45l-0.04,0.11
				l-1.51,0.19c-2.14,0.28-4.27,0.56-6.41,0.84L1225.14,139.71z M1202.12,87.37c9.1,20.29,16.5,36.8,23.26,51.92
				c2.09-0.28,4.18-0.55,6.27-0.82l1.29-0.17c8.42-20.91,16.09-39.9,23.43-58.04c-2.88,0.34-5.76,0.68-8.64,1.04
				c-6.01,15.86-12.02,31.76-18.04,47.67l-0.04,0.11l-0.52,0.07l-0.06-0.14c-6.01-14.33-12.01-28.63-18.02-42.91
				C1208.07,86.51,1205.1,86.94,1202.12,87.37z"/>
			<path class="st0" d="M1225.27,140.72c-0.42,0-0.9-0.22-1.07-0.58l-0.06-0.13c-6.8-15.23-14.24-31.84-23.43-52.29l-0.1-0.23
				c-0.14-0.29-0.12-0.64,0.03-0.92c0.16-0.28,0.43-0.48,0.75-0.53l0.26-0.04c3.12-0.45,6.23-0.89,9.34-1.32
				c0.47-0.06,1.06,0.17,1.24,0.6c5.73,13.61,11.4,27.13,17.07,40.65c5.71-15.1,11.42-30.19,17.12-45.24
				c0.14-0.36,0.5-0.73,0.89-0.77c3.14-0.39,6.17-0.75,9.2-1.11l0.34-0.04c0.36-0.03,0.72,0.11,0.94,0.41
				c0.22,0.29,0.27,0.68,0.13,1.02l-0.13,0.3c-7.38,18.26-15.1,37.37-23.59,58.44c-0.14,0.35-0.5,0.7-0.87,0.75l-1.51,0.19
				c-2.13,0.28-4.26,0.55-6.4,0.84C1225.38,140.72,1225.33,140.72,1225.27,140.72z M1203.62,88.19
				c8.71,19.41,15.85,35.35,22.38,49.97c1.72-0.23,3.43-0.45,5.15-0.68l1.04-0.14c8.09-20.07,15.47-38.37,22.55-55.86
				c-2.09,0.25-4.19,0.5-6.28,0.76c-5.94,15.67-11.88,31.37-17.82,47.09c-0.14,0.35-0.5,0.72-0.87,0.77l-0.52,0.07
				c-0.45,0.07-0.9-0.19-1.09-0.62c-5.96-14.22-11.87-28.29-17.77-42.32C1208.15,87.55,1205.88,87.87,1203.62,88.19z"/>
		</g>
	</g>
	<g>
		<g>
			<path class="st0" d="M1329.83,72.87c-8.69,19.17-17.37,38.41-26.06,57.72c3.11-0.29,6.22-0.56,9.33-0.83
				c2.01-4.72,4.02-9.44,6.03-14.16c9.51-0.79,19.01-1.49,28.52-2.1c2.04,4.42,4.07,8.84,6.11,13.27c3.17-0.19,6.34-0.37,9.51-0.54
				c-8.6-18.05-17.2-36.02-25.8-53.92C1334.92,72.49,1332.37,72.68,1329.83,72.87z M1322.1,108.54c3.76-8.99,7.53-17.96,11.29-26.91
				c3.74,8.4,7.47,16.82,11.2,25.26C1337.1,107.38,1329.6,107.93,1322.1,108.54z"/>
			<path class="st0" d="M1303.77,131.63c-0.33,0-0.65-0.16-0.84-0.43c-0.21-0.3-0.25-0.69-0.1-1.02
				c8.69-19.31,17.37-38.55,26.06-57.72c0.16-0.34,0.49-0.58,0.86-0.61c2.55-0.19,5.1-0.38,7.64-0.56c0.42-0.06,0.82,0.2,1,0.58
				c8.6,17.9,17.2,35.87,25.8,53.92c0.15,0.31,0.13,0.68-0.04,0.97c-0.18,0.3-0.49,0.49-0.83,0.5c-3.17,0.17-6.33,0.35-9.5,0.54
				c-0.44,0.08-0.82-0.21-1-0.6l-5.81-12.62c-8.85,0.57-17.99,1.25-27.17,2l-5.78,13.58c-0.15,0.35-0.48,0.59-0.86,0.62
				c-3.11,0.27-6.22,0.55-9.33,0.83C1303.83,131.63,1303.8,131.63,1303.77,131.63z M1330.52,73.86
				c-8.36,18.45-16.72,36.97-25.08,55.55c2.32-0.21,4.64-0.42,6.96-0.62l5.78-13.59c0.15-0.35,0.48-0.59,0.87-0.62
				c9.65-0.8,19.26-1.51,28.54-2.1c0.46-0.02,0.83,0.21,1,0.6l5.82,12.62c2.42-0.14,4.84-0.28,7.27-0.42
				c-8.28-17.37-16.56-34.66-24.83-51.89C1334.73,73.54,1332.62,73.7,1330.52,73.86z M1322.1,109.57c-0.33,0-0.64-0.16-0.83-0.43
				c-0.21-0.29-0.26-0.67-0.12-1.01c3.76-8.99,7.53-17.96,11.29-26.91c0.16-0.38,0.53-0.63,0.94-0.63h0.01
				c0.41,0,0.78,0.24,0.94,0.61c3.74,8.4,7.47,16.82,11.2,25.26c0.14,0.31,0.11,0.66-0.06,0.95c-0.17,0.29-0.48,0.47-0.81,0.5
				c-7.5,0.5-14.99,1.05-22.48,1.66C1322.16,109.57,1322.13,109.57,1322.1,109.57z M1333.42,84.23c-3.24,7.7-6.47,15.42-9.71,23.15
				c6.45-0.51,12.89-0.99,19.34-1.42C1339.84,98.7,1336.63,91.46,1333.42,84.23z"/>
		</g>
		<g>
			<path class="st0" d="M1303.46,130.82l0.14-0.3c8.32-18.48,16.84-37.37,26.06-57.72l0.05-0.11l0.11-0.01
				c2.54-0.19,5.09-0.38,7.64-0.56l0.13-0.01l0.06,0.12c9.29,19.33,17.72,36.97,25.8,53.92l0.13,0.26l-0.29,0.02
				c-3.16,0.17-6.34,0.35-9.5,0.54l-0.13,0.01l-0.06-0.12l-6.06-13.15c-9.24,0.6-18.75,1.3-28.26,2.08
				c-1.09,2.55-2.17,5.1-3.26,7.65l-2.77,6.5l-0.12,0.01c-3.11,0.27-6.22,0.55-9.33,0.83L1303.46,130.82z M1329.96,73.06
				c-9.15,20.21-17.62,38.96-25.87,57.31c2.96-0.27,5.92-0.54,8.89-0.79l2.68-6.29c1.1-2.59,2.2-5.17,3.31-7.76l0.05-0.11l0.12-0.01
				c9.6-0.8,19.19-1.5,28.52-2.1l0.13-0.01l0.06,0.12l6.06,13.15c3.02-0.18,6.06-0.35,9.08-0.52c-8.02-16.84-16.4-34.36-25.62-53.54
				C1334.89,72.69,1332.42,72.87,1329.96,73.06z M1321.8,108.76l0.13-0.3c3.04-7.25,6.07-14.49,9.11-21.72l2.35-5.61l0.18,0.41
				c3.74,8.41,7.47,16.82,11.21,25.26l0.11,0.25l-0.28,0.02c-7.3,0.48-14.86,1.04-22.49,1.66L1321.8,108.76z M1333.4,82.12l-2,4.77
				c-2.99,7.14-5.99,14.28-8.98,21.43c7.43-0.6,14.79-1.14,21.9-1.61C1340.67,98.5,1337.03,90.3,1333.4,82.12z"/>
			<path class="st0" d="M1303.46,131.85c-0.33,0-0.65-0.16-0.84-0.43c-0.21-0.3-0.25-0.69-0.1-1.02l0.14-0.3
				c8.31-18.48,16.83-37.37,26.06-57.73c0.16-0.34,0.54-0.68,0.92-0.71l7.76-0.57c0.37-0.01,0.95,0.19,1.14,0.57
				c9.34,19.45,17.78,37.09,25.86,54.05l0.13,0.26c0.15,0.31,0.13,0.68-0.04,0.97c-0.18,0.3-0.49,0.48-0.84,0.5l-0.29,0.01
				c-3.16,0.17-6.33,0.35-9.49,0.54c-0.45,0.03-0.95-0.2-1.13-0.58l-5.82-12.63c-8.65,0.56-17.7,1.23-26.91,1.98l-5.79,13.59
				c-0.15,0.35-0.48,0.59-0.86,0.62c-3.22,0.28-6.33,0.56-9.44,0.84l-0.34,0.03C1303.55,131.85,1303.49,131.85,1303.46,131.85z
				 M1330.64,74.04c-8.79,19.4-16.94,37.47-24.89,55.14c2.17-0.2,4.34-0.39,6.51-0.58l5.74-13.48c0.15-0.35,0.53-0.7,0.91-0.73
				c9.62-0.8,19.22-1.51,28.66-2.12c0.41-0.01,0.96,0.2,1.14,0.58l5.82,12.63c2.28-0.14,4.56-0.27,6.84-0.39
				c-7.73-16.22-15.81-33.11-24.65-51.51C1334.7,73.74,1332.67,73.89,1330.64,74.04z M1321.8,109.8c-0.33,0-0.64-0.16-0.84-0.43
				c-0.21-0.29-0.25-0.67-0.11-1.01l11.59-27.63c0.16-0.38,0.54-0.61,0.95-0.63c0.41,0,0.78,0.24,0.94,0.61l0.18,0.41
				c3.74,8.41,7.47,16.83,11.21,25.26l0.11,0.26c0.13,0.31,0.1,0.66-0.07,0.95c-0.17,0.28-0.48,0.47-0.81,0.49l-0.28,0.02
				c-7.29,0.48-14.85,1.04-22.47,1.66l-0.32,0.03C1321.86,109.79,1321.83,109.8,1321.8,109.8z M1333.42,84.72l-9.41,22.43
				c6.35-0.51,12.63-0.97,18.75-1.38L1333.42,84.72z"/>
		</g>
	</g>
	<g>
		<g>
			<path class="st0" d="M1428.79,68.73c-2.8,0.02-5.6,0.04-8.4,0.07c0,18.51,0,37.02,0,55.53c11.74-0.14,23.48-0.11,35.22,0.09
				c0-2.3,0-4.6,0-6.9c-8.94-0.15-17.88-0.21-26.82-0.16C1428.79,101.15,1428.79,84.94,1428.79,68.73z"/>
			<path class="st0" d="M1455.61,125.46h-0.02c-11.56-0.2-23.4-0.23-35.19-0.09c-0.21,0.06-0.54-0.1-0.74-0.3
				c-0.2-0.19-0.31-0.46-0.31-0.73V68.8c0-0.56,0.46-1.03,1.02-1.03c2.8-0.03,5.61-0.05,8.41-0.07h0.01c0.27,0,0.53,0.11,0.73,0.3
				c0.2,0.19,0.3,0.46,0.3,0.73v47.59c8.67-0.04,17.36,0.02,25.81,0.17c0.56,0.01,1.01,0.47,1.01,1.03v6.9
				c0,0.28-0.11,0.54-0.31,0.74C1456.15,125.35,1455.88,125.46,1455.61,125.46z M1434.75,123.21c6.66,0,13.29,0.05,19.84,0.16v-4.83
				c-8.45-0.14-17.12-0.18-25.78-0.15h0c-0.27,0-0.53-0.11-0.73-0.3c-0.2-0.19-0.3-0.46-0.3-0.73V69.77
				c-2.11,0.01-4.23,0.03-6.34,0.05v53.47C1425.87,123.24,1430.31,123.21,1434.75,123.21z"/>
		</g>
		<g>
			<path class="st0" d="M1455.81,124.62l-0.2,0c-11.55-0.19-23.4-0.23-35.21-0.09l-0.2,0V68.6h0.19c2.8-0.03,5.6-0.05,8.41-0.07
				h0.19v48.63c8.89-0.05,17.85,0.01,26.63,0.16l0.19,0V124.62z M1434.9,124.05c6.9,0,13.76,0.06,20.52,0.17v-6.51
				c-8.78-0.15-17.73-0.19-26.62-0.16h-0.19V68.92c-2.67,0.02-5.34,0.04-8.01,0.07v55.14
				C1425.36,124.08,1430.14,124.05,1434.9,124.05z"/>
			<path class="st0" d="M1455.81,125.65h-0.02l-0.2,0c-11.67-0.2-23.51-0.23-35.18-0.09c-0.23,0.05-0.64-0.1-0.84-0.3
				c-0.2-0.19-0.41-0.46-0.41-0.73V68.6c0-0.57,0.46-1.03,1.03-1.03c2.98-0.03,5.79-0.05,8.59-0.07h0.01c0.27,0,0.63,0.11,0.82,0.3
				c0.2,0.19,0.4,0.46,0.4,0.73v47.59c8.25-0.03,16.86,0.02,25.61,0.17c0.56,0.01,1.21,0.47,1.21,1.04v7.29
				c0,0.28-0.11,0.54-0.31,0.74C1456.34,125.55,1456.08,125.65,1455.81,125.65z M1434.9,123.02c6.55,0,13.06,0.05,19.49,0.16v-4.45
				c-7.8-0.13-16.19-0.18-25.59-0.15h0c-0.27,0-0.63-0.11-0.83-0.3c-0.19-0.19-0.4-0.46-0.4-0.73V69.96
				c-1.98,0.01-3.97,0.03-5.95,0.05v53.08C1426.05,123.05,1430.48,123.02,1434.9,123.02z"/>
		</g>
	</g>
	<g>
		<g>
			<path class="st0" d="M1633.26,93.54c-2.83-3.09-6.2-5.7-10.1-7.83c-3.9-2.12-8.15-3.57-12.73-4.35
				c-4.59-0.77-8.82-0.76-12.69,0.06c-3.88,0.8-7.23,2.28-10.06,4.42c-2.83,2.13-5.04,4.88-6.62,8.25
				c-1.58,3.37-2.38,7.22-2.38,11.56c0.01,4.29,0.79,8.33,2.38,12.13c1.59,3.8,3.79,7.19,6.62,10.18c2.82,2.99,6.18,5.51,10.06,7.54
				c3.88,2.03,8.11,3.44,12.69,4.21c4.58,0.77,8.82,0.8,12.73,0.08c3.91-0.71,7.27-2.09,10.1-4.13c2.83-2.04,5.05-4.66,6.66-7.93
				c1.61-3.26,2.42-7.03,2.42-11.31c0-4.33-0.81-8.48-2.42-12.38C1638.31,100.14,1636.09,96.63,1633.26,93.54z M1631.65,123
				c-1.07,2.51-2.6,4.6-4.58,6.23c-1.98,1.64-4.39,2.78-7.22,3.42c-2.83,0.65-5.97,0.68-9.42,0.09c-3.45-0.58-6.57-1.66-9.34-3.25
				c-2.76-1.58-5.15-3.54-7.13-5.85c-1.98-2.31-3.52-4.89-4.58-7.78c-1.08-2.88-1.61-5.86-1.61-8.94c0-3.05,0.54-5.8,1.61-8.36
				c1.07-2.52,2.59-4.68,4.54-6.42c1.96-1.76,4.33-2.99,7.13-3.72c2.81-0.74,5.93-0.83,9.38-0.23c3.51,0.59,6.65,1.72,9.46,3.41
				c2.8,1.68,5.19,3.74,7.17,6.14c1.98,2.39,3.51,5.07,4.58,7.97c1.07,2.9,1.62,5.87,1.61,8.9
				C1633.26,117.69,1632.72,120.49,1631.65,123z"/>
			<path class="st0" d="M1617.28,141.34c-2.26,0-4.6-0.2-7.02-0.61c-4.66-0.78-9.03-2.24-13-4.32c-3.95-2.07-7.42-4.68-10.33-7.74
				c-2.9-3.06-5.19-6.59-6.82-10.5c-1.62-3.87-2.45-8.09-2.46-12.52c0-4.48,0.83-8.51,2.47-12c1.65-3.5,3.98-6.4,6.93-8.63
				c2.94-2.23,6.47-3.78,10.47-4.61c3.96-0.84,8.36-0.86,13.07-0.07c4.67,0.79,9.06,2.3,13.05,4.46c3.98,2.17,7.47,4.88,10.37,8.04
				c2.89,3.15,5.2,6.78,6.86,10.81c1.66,4,2.5,8.3,2.5,12.77c0,4.42-0.85,8.38-2.53,11.77c-1.67,3.38-4.02,6.17-6.99,8.31
				c-2.94,2.12-6.48,3.57-10.52,4.31C1621.41,141.16,1619.38,141.34,1617.28,141.34z M1603.97,81.83c-2.11,0-4.12,0.2-6.01,0.6
				c-3.7,0.76-6.95,2.19-9.65,4.23c-2.68,2.03-4.81,4.67-6.31,7.86c-1.51,3.21-2.28,6.95-2.28,11.12c0.01,4.16,0.78,8.1,2.3,11.73
				c1.53,3.67,3.69,6.99,6.42,9.87c2.75,2.9,6.04,5.37,9.79,7.34c3.77,1.98,7.94,3.36,12.38,4.11c4.45,0.75,8.61,0.78,12.37,0.08
				c3.74-0.68,6.99-2.01,9.68-3.95c2.73-1.96,4.8-4.44,6.34-7.55c1.53-3.1,2.31-6.75,2.31-10.85c0-4.2-0.79-8.23-2.34-11.98
				c-1.57-3.8-3.74-7.23-6.47-10.2l0,0c-2.75-2.99-6.06-5.56-9.83-7.62c-3.79-2.06-7.97-3.48-12.41-4.24
				C1608.08,82.01,1605.98,81.83,1603.97,81.83z M1615.15,134.19c-1.57,0-3.2-0.15-4.89-0.44c-3.57-0.6-6.83-1.74-9.68-3.38
				c-2.87-1.65-5.36-3.69-7.4-6.08c-2.08-2.41-3.68-5.14-4.77-8.09c-1.11-2.97-1.67-6.1-1.68-9.29c0.01-3.19,0.56-6.06,1.69-8.76
				c1.14-2.68,2.76-4.96,4.81-6.79c2.06-1.85,4.6-3.18,7.56-3.95c2.95-0.78,6.25-0.87,9.82-0.25c3.61,0.61,6.92,1.8,9.82,3.55
				c2.86,1.71,5.36,3.85,7.44,6.37c2.03,2.46,3.63,5.24,4.75,8.26c1.12,3.02,1.68,6.13,1.68,9.26c0,3.2-0.57,6.16-1.69,8.8
				c-1.14,2.67-2.78,4.9-4.88,6.62c-2.09,1.73-4.67,2.95-7.64,3.63C1618.53,134.01,1616.88,134.19,1615.15,134.19z M1606.06,88.82
				c-1.68,0-3.27,0.2-4.75,0.59c-2.67,0.7-4.86,1.84-6.7,3.49c-1.82,1.63-3.26,3.67-4.28,6.06c-1.02,2.44-1.52,5.04-1.53,7.96
				c0,2.95,0.52,5.83,1.55,8.57c1,2.72,2.48,5.23,4.4,7.46c1.89,2.21,4.19,4.1,6.86,5.63c2.63,1.52,5.66,2.57,9,3.13
				c3.3,0.57,6.33,0.54,9.02-0.08c2.66-0.6,4.94-1.68,6.79-3.21c1.84-1.51,3.28-3.48,4.29-5.84v0c1.02-2.37,1.53-5.06,1.53-7.98
				c0-2.88-0.52-5.76-1.55-8.54c-1.04-2.81-2.53-5.39-4.41-7.67c-1.93-2.34-4.25-4.32-6.91-5.92c-2.68-1.61-5.74-2.72-9.1-3.28
				C1608.81,88.95,1607.4,88.82,1606.06,88.82z"/>
		</g>
		<g>
			<path class="st0" d="M1617.27,140.5c-2.2,0-4.5-0.2-6.87-0.6c-4.57-0.77-8.86-2.19-12.75-4.23c-3.87-2.03-7.27-4.58-10.1-7.58
				c-2.83-2.98-5.07-6.42-6.66-10.24c-1.58-3.78-2.39-7.88-2.39-12.2c0-4.35,0.81-8.27,2.4-11.64c1.59-3.37,3.84-6.17,6.68-8.32
				c2.84-2.15,6.25-3.66,10.13-4.46c3.86-0.81,8.16-0.83,12.76-0.06c4.58,0.78,8.89,2.26,12.79,4.37c3.89,2.12,7.31,4.77,10.15,7.87
				c2.82,3.07,5.07,6.62,6.7,10.56c1.61,3.91,2.43,8.09,2.43,12.45c0,4.29-0.83,8.13-2.44,11.4c-1.61,3.26-3.87,5.95-6.73,8
				c-2.84,2.05-6.26,3.45-10.18,4.16C1621.31,140.33,1619.33,140.5,1617.27,140.5z M1603.97,80.99c-2.16,0-4.23,0.21-6.19,0.62
				c-3.83,0.79-7.19,2.27-9.98,4.39c-2.79,2.1-5,4.85-6.57,8.17c-1.56,3.32-2.36,7.19-2.36,11.48c0.01,4.27,0.8,8.32,2.36,12.05
				c1.57,3.77,3.79,7.18,6.58,10.13c2.81,2.97,6.17,5.49,10,7.51c3.86,2.02,8.11,3.43,12.63,4.2c4.54,0.76,8.81,0.79,12.66,0.08
				c3.86-0.7,7.23-2.08,10.02-4.1c2.84-2.05,5-4.62,6.6-7.86c1.59-3.21,2.4-6.99,2.4-11.22c0-4.31-0.81-8.44-2.4-12.3
				c-1.61-3.89-3.84-7.41-6.63-10.44c-2.81-3.07-6.2-5.69-10.05-7.79c-3.86-2.1-8.13-3.56-12.67-4.34
				C1608.18,81.18,1606.03,80.99,1603.97,80.99z M1615.15,133.35c-1.52,0-3.1-0.14-4.75-0.43c-3.48-0.58-6.64-1.69-9.4-3.28
				c-2.78-1.59-5.2-3.58-7.18-5.89c-2.01-2.34-3.56-4.98-4.62-7.84c-1.07-2.88-1.62-5.91-1.62-9c0-3.08,0.54-5.84,1.63-8.43
				c1.09-2.55,2.63-4.74,4.59-6.49c1.99-1.79,4.35-3.02,7.21-3.77c2.83-0.74,6.01-0.83,9.46-0.23c3.51,0.59,6.72,1.74,9.53,3.43
				c2.78,1.66,5.2,3.74,7.22,6.19c1.97,2.39,3.53,5.09,4.62,8.02c1.08,2.93,1.63,5.95,1.62,8.97c0,3.09-0.54,5.94-1.63,8.47
				c-1.09,2.55-2.65,4.67-4.64,6.3c-1.99,1.65-4.44,2.81-7.29,3.46C1618.4,133.18,1616.82,133.35,1615.15,133.35z M1606.06,87.99
				c-1.75,0-3.41,0.21-4.96,0.62c-2.8,0.73-5.1,1.93-7.05,3.68c-1.91,1.72-3.43,3.85-4.49,6.35c-1.07,2.55-1.59,5.26-1.6,8.28
				c0,3.05,0.54,6.03,1.6,8.87c1.04,2.82,2.57,5.41,4.55,7.72c1.95,2.28,4.33,4.23,7.08,5.81c2.72,1.57,5.84,2.65,9.27,3.23
				c3.4,0.58,6.55,0.56,9.35-0.09c2.78-0.63,5.18-1.77,7.13-3.38c1.94-1.59,3.47-3.66,4.53-6.15l0,0c1.07-2.48,1.6-5.28,1.6-8.32
				c0-2.98-0.54-5.95-1.6-8.83c-1.08-2.89-2.61-5.55-4.55-7.91c-1.99-2.41-4.39-4.46-7.12-6.1c-2.77-1.67-5.93-2.81-9.4-3.39
				C1608.9,88.11,1607.45,87.99,1606.06,87.99z"/>
			<path class="st0" d="M1617.27,141.54c-2.27,0-4.63-0.21-7.04-0.61c-4.68-0.79-9.07-2.25-13.06-4.34
				c-3.98-2.09-7.46-4.71-10.37-7.79c-2.91-3.07-5.22-6.62-6.86-10.55c-1.63-3.89-2.46-8.13-2.47-12.6c0-4.5,0.84-8.57,2.5-12.09
				c1.66-3.53,4.02-6.45,6.99-8.7c2.97-2.25,6.52-3.81,10.54-4.65c3.99-0.84,8.41-0.86,13.14-0.07c4.69,0.8,9.1,2.31,13.11,4.49
				c3.99,2.18,7.5,4.89,10.42,8.08c2.91,3.17,5.23,6.82,6.89,10.86c1.67,4.03,2.51,8.35,2.51,12.85c0,4.45-0.86,8.44-2.54,11.85
				c-1.69,3.41-4.06,6.23-7.05,8.38c-2.97,2.14-6.54,3.6-10.6,4.34C1621.45,141.35,1619.4,141.54,1617.27,141.54z M1603.97,82.03
				c-2.1,0-4.11,0.2-5.98,0.59c-3.67,0.76-6.89,2.17-9.56,4.2c-2.65,2-4.76,4.62-6.25,7.79c-1.5,3.19-2.26,6.9-2.26,11.04
				c0.01,4.13,0.78,8.05,2.28,11.65c1.52,3.65,3.67,6.95,6.38,9.81c2.74,2.89,6.01,5.35,9.73,7.3c3.76,1.97,7.9,3.34,12.32,4.09
				c4.44,0.75,8.58,0.77,12.3,0.08c3.71-0.68,6.94-2,9.6-3.92c2.7-1.95,4.76-4.4,6.28-7.48c1.52-3.07,2.29-6.69,2.29-10.76
				c0-4.16-0.79-8.17-2.33-11.91c-1.57-3.79-3.73-7.2-6.44-10.14c-2.73-2.98-6.02-5.53-9.78-7.58c-3.77-2.05-7.92-3.47-12.35-4.22
				C1608.07,82.21,1605.97,82.03,1603.97,82.03z M1615.15,134.38c-1.58,0-3.24-0.15-4.93-0.44c-3.59-0.6-6.87-1.74-9.74-3.39
				c-2.89-1.66-5.39-3.72-7.45-6.12c-2.09-2.44-3.71-5.18-4.8-8.15c-1.12-3-1.68-6.15-1.69-9.36c0-3.21,0.56-6.1,1.71-8.83
				c1.15-2.7,2.78-5,4.85-6.86c2.11-1.9,4.61-3.21,7.64-4c3-0.79,6.33-0.87,9.9-0.25c3.63,0.61,6.96,1.81,9.89,3.57
				c2.87,1.72,5.39,3.87,7.49,6.41c2.05,2.48,3.66,5.28,4.79,8.32c1.13,3.05,1.69,6.19,1.69,9.33c0,3.23-0.57,6.21-1.71,8.88
				c-1.15,2.7-2.81,4.95-4.94,6.69c-2.12,1.75-4.71,2.99-7.72,3.66C1618.57,134.2,1616.89,134.38,1615.15,134.38z M1606.06,89.02
				c-1.66,0-3.24,0.2-4.7,0.58c-2.64,0.69-4.8,1.81-6.62,3.45c-1.81,1.62-3.23,3.63-4.23,5.99c-1.01,2.42-1.51,5-1.51,7.88
				c0,2.92,0.52,5.78,1.54,8.5c1,2.7,2.46,5.2,4.36,7.41c1.87,2.19,4.16,4.07,6.81,5.59c2.61,1.5,5.62,2.55,8.93,3.11
				c3.27,0.56,6.28,0.53,8.95-0.07c2.63-0.6,4.88-1.66,6.7-3.17c1.82-1.49,3.24-3.43,4.24-5.77c1.01-2.35,1.52-5.01,1.51-7.91
				c0-2.86-0.51-5.71-1.54-8.48c-1.03-2.79-2.51-5.35-4.38-7.61c-1.91-2.31-4.21-4.29-6.86-5.87c-2.65-1.6-5.69-2.69-9.04-3.26
				C1608.78,89.14,1607.38,89.02,1606.06,89.02z"/>
		</g>
	</g>
	<g>
		<g>
			<path class="st0" d="M1740.71,121.64c0-2.27,0-4.55,0-6.82c-12.5-4.1-25.01-7.89-37.51-11.38c0,18.51,0,37.02,0,55.53
				c2.8,0.78,5.6,1.58,8.4,2.39c0-8.26,0-16.53,0-24.79c9.08,2.63,18.16,5.42,27.24,8.38c0-2.22,0-4.44,0-6.66
				c-9.08-2.96-18.16-5.75-27.24-8.38c0-5.75,0-11.5,0-17.26C1721.31,115.47,1731.01,118.46,1740.71,121.64z"/>
			<path class="st0" d="M1711.6,162.39c-0.1,0-0.19-0.01-0.29-0.04c-2.8-0.82-5.59-1.61-8.39-2.39c-0.45-0.12-0.76-0.53-0.76-0.99
				v-55.53c0-0.32,0.15-0.63,0.41-0.82c0.26-0.19,0.59-0.26,0.9-0.17c12.55,3.5,25.19,7.34,37.56,11.4
				c0.42,0.14,0.71,0.53,0.71,0.98v6.82c0,0.33-0.16,0.64-0.43,0.84c-0.26,0.2-0.61,0.25-0.93,0.14
				c-9.04-2.97-18.38-5.86-27.76-8.59v15.11c8.84,2.57,17.76,5.31,26.53,8.17c0.42,0.14,0.71,0.53,0.71,0.98v6.66
				c0,0.33-0.16,0.64-0.43,0.84c-0.27,0.2-0.61,0.25-0.93,0.15c-8.51-2.77-17.21-5.46-25.89-7.99v23.41c0,0.32-0.15,0.63-0.41,0.83
				C1712.04,162.32,1711.82,162.39,1711.6,162.39z M1704.23,158.18c2.11,0.59,4.22,1.19,6.34,1.8v-23.41c0-0.32,0.15-0.63,0.41-0.82
				c0.26-0.2,0.6-0.25,0.91-0.17c8.68,2.51,17.39,5.19,25.92,7.95v-4.49c-8.77-2.85-17.68-5.59-26.5-8.14
				c-0.44-0.13-0.75-0.53-0.75-0.99v-17.26c0-0.32,0.15-0.63,0.41-0.82c0.26-0.2,0.6-0.25,0.91-0.17c9.38,2.72,18.72,5.6,27.79,8.56
				v-4.65c-11.68-3.82-23.59-7.44-35.45-10.77V158.18z"/>
		</g>
		<g>
			<path class="st0" d="M1711.8,161.62l-0.25-0.07c-2.96-0.86-5.7-1.64-8.4-2.39l-0.14-0.04v-55.94l0.25,0.07
				c12.59,3.51,25.22,7.35,37.52,11.39l0.13,0.05v7.24l-0.25-0.08c-9.41-3.09-19.12-6.09-28.86-8.92v16.86
				c8.98,2.6,18.1,5.41,27.11,8.33l0.13,0.05v7.08l-0.25-0.08c-8.83-2.88-17.91-5.67-26.99-8.31V161.62z M1703.4,158.82
				c2.58,0.72,5.2,1.46,8.01,2.28v-24.79l0.25,0.07c9.08,2.63,18.16,5.42,27,8.3v-6.25c-9.01-2.93-18.13-5.73-27.1-8.33l-0.14-0.04
				V112.4l0.25,0.07c9.74,2.82,19.45,5.82,28.86,8.91v-6.41c-12.18-3.99-24.66-7.79-37.13-11.27V158.82z"/>
			<path class="st0" d="M1711.8,162.65c-0.1,0-0.2-0.01-0.29-0.04l-0.25-0.07c-2.95-0.86-5.69-1.64-8.39-2.39
				c-0.45-0.12-0.9-0.57-0.9-1.03v-55.94c0-0.32,0.15-0.63,0.41-0.82c0.26-0.2,0.59-0.26,0.9-0.17l0.25,0.07
				c12.55,3.5,25.18,7.34,37.57,11.4c0.42,0.14,0.84,0.58,0.84,1.03v7.24c0,0.33-0.16,0.64-0.43,0.84c-0.27,0.2-0.62,0.24-0.93,0.14
				l-0.26-0.08c-8.9-2.92-18.15-5.79-27.5-8.52v14.7c8.74,2.54,17.62,5.27,26.4,8.13c0.43,0.14,0.85,0.58,0.85,1.03v7.08
				c0,0.33-0.16,0.64-0.43,0.84c-0.27,0.19-0.62,0.24-0.93,0.14l-0.26-0.08c-8.42-2.74-17.04-5.4-25.63-7.91v23.41
				c0,0.32-0.15,0.63-0.41,0.83C1712.24,162.58,1712.02,162.65,1711.8,162.65z M1704.43,158.03c1.93,0.54,3.89,1.1,5.95,1.69v-23.41
				c0-0.32,0.15-0.63,0.41-0.83c0.26-0.19,0.6-0.26,0.91-0.16l0.25,0.07c8.59,2.49,17.22,5.13,25.67,7.87v-4.08
				c-8.68-2.81-17.54-5.53-26.36-8.09c-0.44-0.13-0.89-0.57-0.89-1.03V112.4c0-0.32,0.15-0.63,0.41-0.83
				c0.26-0.2,0.6-0.25,0.91-0.16l0.25,0.07c9.26,2.68,18.52,5.53,27.54,8.47v-4.24c-11.51-3.77-23.3-7.35-35.06-10.66V158.03z"/>
		</g>
	</g>
</g>
<g>
	<g>
		<path class="st0" d="M233.4,391.99c-0.45,0-0.9-0.07-1.35-0.21L3.04,317.7C1.22,317.12,0,315.44,0,313.53s1.22-3.58,3.04-4.17
			l228.97-74.06c2.3-0.75,4.77,0.52,5.52,2.82c0.75,2.3-0.52,4.77-2.82,5.52L18.62,313.53l216.13,69.91
			c2.31,0.75,3.57,3.21,2.82,5.52C236.97,390.81,235.25,391.99,233.4,391.99z"/>
	</g>
	<g>
		<path class="st0" d="M960,626.92c-0.46,0-0.91-0.07-1.35-0.21l-197.76-64.15c-2.31-0.75-3.56-3.22-2.82-5.52
			c0.75-2.31,3.22-3.55,5.52-2.82L960,617.93l573.93-185.28c2.32-0.74,4.77,0.52,5.52,2.82c0.75,2.31-0.52,4.77-2.82,5.52
			L961.35,626.71C960.91,626.85,960.45,626.92,960,626.92z"/>
	</g>
	<g>
		<path class="st0" d="M1716.19,382.4c-1.85,0-3.57-1.18-4.17-3.04c-0.75-2.3,0.52-4.77,2.82-5.52l186.53-60.32l-77.45-25.05
			c-2.31-0.75-3.57-3.21-2.82-5.52c0.75-2.3,3.23-3.56,5.52-2.82l90.35,29.21c1.81,0.59,3.04,2.27,3.04,4.17s-1.22,3.58-3.04,4.17
			l-199.43,64.48C1717.09,382.33,1716.64,382.4,1716.19,382.4z"/>
	</g>
	<g>
		<path class="st0" d="M1141.12,68.51c-0.45,0-0.92-0.07-1.37-0.22L959.99,9.13L768.77,71.05c-2.31,0.75-4.77-0.52-5.52-2.82
			c-0.75-2.3,0.52-4.77,2.82-5.52L958.65,0.35c0.88-0.28,1.84-0.29,2.72,0.01l181.12,59.6c2.3,0.76,3.55,3.23,2.79,5.53
			C1144.68,67.34,1142.96,68.51,1141.12,68.51z"/>
	</g>
</g>
<g>
	<g>
		<path class="st3" d="M233.4,370.36c-0.45,0-0.9-0.07-1.35-0.21L69.93,317.7c-1.81-0.59-3.04-2.27-3.04-4.17s1.22-3.58,3.04-4.17
			l162.08-52.43c2.29-0.75,4.77,0.52,5.52,2.82s-0.52,4.77-2.82,5.52L85.52,313.53l149.23,48.28c2.31,0.75,3.57,3.21,2.82,5.52
			C236.97,369.18,235.25,370.36,233.4,370.36z"/>
	</g>
	<g>
		<path class="st3" d="M960,605.29c-0.45,0-0.91-0.07-1.34-0.21L790.8,551.18c-2.31-0.74-3.57-3.21-2.83-5.51
			c0.74-2.31,3.2-3.58,5.51-2.83L960,596.31l459.05-148.1c2.32-0.74,4.77,0.52,5.52,2.82c0.75,2.31-0.52,4.77-2.82,5.52
			L961.35,605.08C960.91,605.22,960.45,605.29,960,605.29z"/>
	</g>
	<g>
		<path class="st3" d="M1716.19,360.77c-1.85,0-3.57-1.18-4.17-3.04c-0.75-2.3,0.52-4.77,2.82-5.52l119.64-38.69l-24.88-8.05
			c-2.31-0.75-3.57-3.21-2.82-5.52c0.75-2.3,3.23-3.57,5.52-2.82l37.77,12.21c1.81,0.59,3.04,2.27,3.04,4.17s-1.22,3.58-3.04,4.17
			l-132.53,42.86C1717.09,360.7,1716.64,360.77,1716.19,360.77z"/>
	</g>
	<g>
		<path class="st3" d="M780.9,88.53c-1.85,0-3.57-1.18-4.17-3.03c-0.75-2.3,0.52-4.77,2.82-5.52l179.1-57.99
			c0.88-0.28,1.84-0.29,2.72,0.01l141.7,46.61c2.3,0.76,3.55,3.23,2.79,5.53c-0.75,2.3-3.23,3.57-5.53,2.79L959.99,30.77
			L782.25,88.31C781.8,88.46,781.34,88.53,780.9,88.53z"/>
	</g>
</g>
</svg>
