<?xml version="1.0" encoding="utf-8"?>
<!-- Generator: Adobe Illustrator 24.3.1, SVG Export Plug-In . SVG Version: 6.00 Build 0)  -->
<svg version="1.1" xmlns="http://www.w3.org/2000/svg" xmlns:xlink="http://www.w3.org/1999/xlink" x="0px" y="0px"
	 viewBox="0 0 272.79 145.01" style="enable-background:new 0 0 272.79 145.01;" xml:space="preserve">
<style type="text/css">
	.st0{display:none;}
	.st1{display:inline;fill:#B05454;stroke:#000000;stroke-miterlimit:10;}
	.st2{fill:#FFFFFF;}
</style>
<g id="Layer_2" class="st0">
	<rect x="-168.86" y="-321.73" class="st1" width="612" height="792"/>
</g>
<g id="Layer_1">
	<g id="XMLID_2_">
		<path id="XMLID_30_" class="st2" d="M197.65,15.84c1.74,0.04,2.7,0.07,2.7,0.07s-1.89-2.66-7.84-2.93
			c-12.45-0.56-59.86,0.14-74.04,0.4c-14.19,0.27-52.02,4.79-58.23,5.46C54.03,19.5,44.17,20.7,44.3,21.5c0,0,0.75,0.05,1.8,0.11
			v23.14c-0.81,0.21-1.27,0.39-1.26,0.56c0.08,1.24,5.76,0.71,9.55,0.53c3.78-0.18,6.66-0.35,13.87-1.24
			c5.38-0.66,15.49-1.32,29.41-1.98v2.53h2.3V42.5c1.15-0.05,2.32-0.11,3.51-0.16v2.4h2.3v-2.5c1.58-0.07,3.21-0.14,4.87-0.21
			l-4.56,4.31h-4.37v0.93h39.05v-0.93h-0.95v-4.8c19.79,0,40.18,0.4,42.83,0.4c3.96,0,18.74-0.71,18.74-0.71s-1.11-0.53-3.74-1.14
			V15.84z M53.53,43.46c-2.64,0.37-4.92,0.74-6.48,1.07V21.66c1.54,0.08,3.4,0.14,4.68,0.1c0.51-0.02,1.12-0.06,1.8-0.11V43.46z
			 M92.53,17.5c0.68-0.06,1.38-0.12,2.08-0.18l-2.08,4V17.5z M65.52,41.98c-3.72,0.41-7.62,0.88-11.04,1.35V21.56
			c3.03-0.29,7.17-0.84,11.04-1.3V41.98z M73.08,41.21c-1.96,0.19-4.23,0.41-6.62,0.67V20.15c1.97-0.22,3.83-0.41,5.4-0.52
			c0.36-0.02,0.77-0.06,1.22-0.1V41.21z M84.29,40.44c-3.34,0.17-6.11,0.34-8.08,0.5c-0.65,0.05-1.39,0.11-2.19,0.19V19.44
			c2.39-0.25,5.8-0.66,10.27-1.14V40.44z M91.59,31.23L89.93,28l1.66,0.02V31.23z M91.59,27.47l-1.62-0.02l1.62-3.11V27.47z
			 M91.59,23.14l-2.48,4.8l2.48,4.5v7.65c-2.28,0.1-4.41,0.2-6.35,0.3V18.2c1.93-0.2,4.05-0.41,6.35-0.62V23.14z M92.53,40.05v-5.76
			l2.89,5.64C94.44,39.97,93.48,40.01,92.53,40.05z M97.67,39.84c-0.68,0.03-1.62,0.03-1.62,0.03l-3.51-6.78v-5.04l2.99,0.05
			c0.12,0.94,1.08,1.58,2.14,1.64V39.84z M97.67,28.92c-0.08,0.02-0.15,0.04-0.23,0.04c-0.54,0-0.97-0.38-1.09-0.88l1.33,0.02V28.92
			z M97.67,27.57l-1.32-0.02c0.13-0.48,0.56-0.84,1.09-0.84c0.09,0,0.15,0.03,0.23,0.05V27.57z M97.67,25.96
			c-0.08-0.01-0.15-0.02-0.23-0.02c-0.96,0-1.75,0.69-1.9,1.59l-3-0.04v-4.97l2.73-5.26c0.78-0.06,1.58-0.13,2.4-0.19V25.96z
			 M103.48,39.61c-1.19,0.04-2.36,0.09-3.51,0.13v-9.7l3.51,0.67V39.61z M103.48,28.36l-3.51-1.45V16.89
			c1.14-0.09,2.31-0.17,3.51-0.25V28.36z M133.88,15.44c0.63-0.01,1.27-0.02,1.9-0.03l-1.9,3.65V15.44z M133.88,33.33
			c0.17-0.01,0.33-0.02,0.49-0.03l1.1,2.14c-0.52,0.03-1.05,0.06-1.59,0.09V33.33z M135.84,25.44c0.12-0.5,0.56-0.88,1.1-0.88
			c0.64,0,1.15,0.51,1.15,1.13c0,0.62-0.51,1.13-1.15,1.13c-0.53,0-0.95-0.36-1.09-0.84h1.32v-0.55H135.84z M138.61,33.08v2.2
			c-0.81,0.04-1.67,0.09-2.54,0.14l-1.1-2.14C136.52,33.19,137.81,33.12,138.61,33.08z M128.66,15.54c0.43-0.01,3.28-0.07,4.28-0.08
			v5.43l-2.36,4.55h-0.11v0.55h0.16l0.92,1.79c-0.96,0.06-1.92,0.11-2.88,0.17V15.54z M132.04,27.56l-0.81-1.57h1.7v0.73
			L132.04,27.56z M132.94,33.38v2.21c-0.53,0.03-1.05,0.06-1.58,0.09v-2.22C131.9,33.44,132.43,33.41,132.94,33.38z M131.2,25.44
			l1.74-3.36v3.36H131.2z M128.66,33.61c0.59-0.03,1.18-0.06,1.75-0.09v2.22c-0.59,0.03-1.17,0.07-1.75,0.11V33.61z M120.64,15.77
			c2.28-0.08,4.64-0.15,7.07-0.21v12.45c-2.61,0.16-5.08,0.33-7.07,0.46V15.77z M120.64,33.98c2.01-0.07,4.53-0.19,7.07-0.32v2.25
			c-0.49,0.03-0.97,0.06-1.45,0.09c-0.47-0.89-1.4-1.51-2.49-1.51c-0.84,0-1.16,0.83-2.37,0.83c-0.35,0-0.57-0.08-0.76-0.18V33.98z
			 M105.78,16.49c1.78-0.11,3.64-0.22,5.56-0.32l4.95,12.61c-0.11,0.01-0.19,0.02-0.24,0.02c-1.07,0.12-4.91,1.26-5.77,2.35
			l-4.5-1.86V16.49z M107.22,39.48c-0.48,0.02-0.96,0.03-1.44,0.05v-8.38l4.45,0.84c0.75,1.4,4.75,1.76,6.49,2
			c0.26,0.04,0.83,0.05,1.62,0.04l0.21,0.53c-0.04,0-0.07,0-0.12,0c-2.16,0.18-4.32,2.45-7.5,2.83
			C108.39,37.69,107.48,38.8,107.22,39.48z M111.86,46.34h-4.8l4.6-4.35c0.06,0,0.13-0.01,0.19-0.01V46.34z M119.69,46.34h-6.89
			v-4.39c0.11,0,0.21-0.01,0.32-0.01c1.28-0.05,2.64-0.1,4.05-0.14c0.13,0.02,0.25,0.03,0.36,0.05c0.32,0.05,1.1,0.05,2.16,0.03
			V46.34z M119.69,34.65c-0.15-0.05-0.33-0.08-0.55-0.09l-0.21-0.54c0.24,0,0.49-0.01,0.76-0.02V34.65z M119.69,28.54
			c-1.21,0.08-2.19,0.15-2.83,0.2l-4.94-12.6c2.48-0.13,5.07-0.24,7.77-0.34V28.54z M122.8,46.34h-2.16v-4.49
			c0.66-0.02,1.39-0.04,2.16-0.07V46.34z M123.75,41.74c0.85-0.04,1.74-0.08,2.65-0.12c0.57-0.01,1.14-0.02,1.72-0.02l-4.38,4.14
			V41.74z M129.16,46.34h-5.08l5.04-4.76c0.02,0,0.03,0,0.05,0V46.34z M138.88,46.34h-8.78v-4.76c2.87-0.02,5.81-0.03,8.78-0.04
			V46.34z M145.28,35.03c-1.28,0.01-3.31,0.08-5.72,0.2v-2.21c1.42-0.15,3.58-0.67,5.72-1.28V35.03z M145.28,27.19
			c-1.23-0.04-4.09,0.07-7.57,0.25c0.68-0.29,1.16-0.96,1.16-1.74c0-1.05-0.86-1.91-1.93-1.91c-0.54,0-1.02,0.22-1.37,0.57
			l0.01-0.09l-1.26,1.18h-0.43v-5.18l2.53-4.86c2.96-0.04,5.93-0.07,8.87-0.09V27.19z M150.5,38.29c-0.11,0-0.22,0-0.33,0.01
			c0.11-0.04,0.23-0.08,0.33-0.12V38.29z M150.5,35.82c-1.19-0.35-2.68-0.64-4.05-0.76c-0.06,0-0.14-0.01-0.23-0.01v-3.58
			c1.65-0.5,3.2-1.02,4.28-1.46V35.82z M150.5,28.24c-1.12-0.4-2.74-0.77-4.28-0.96V15.31c1.44-0.01,2.86-0.01,4.28-0.01V28.24z
			 M167.79,38.31c-4.39-0.08-9.88-0.16-15.67-0.06c-0.22,0.01-0.45,0.01-0.67,0.02v-0.47c0.8-0.33,1.32-0.6,1.35-0.75
			c0.05-0.27-0.49-0.6-1.35-0.92V29.6c0.32-0.16,0.52-0.3,0.54-0.39c0.03-0.17-0.17-0.36-0.54-0.57V15.3
			c5.67-0.01,11.18,0.02,16.35,0.06V38.31z M172.39,38.38c-1.08-0.02-2.31-0.04-3.65-0.06V15.36c1.24,0.01,2.46,0.02,3.65,0.04
			V38.38z M192.65,39.2c-4.06-0.55-9.73-0.96-17.38-0.82c-0.56,0.01-1.21,0.01-1.94,0.01V15.41c7.82,0.09,14.54,0.21,19.32,0.31
			V39.2z M196.71,39.88c-0.89-0.19-1.92-0.37-3.1-0.55V15.74c1.17,0.03,2.22,0.05,3.1,0.07V39.88z M199.24,56.48
			c0,1.11-34.26,2-76.52,2c-42.26,0-76.52-0.9-76.52-2c0-1.11,34.26-2,76.52-2C164.98,54.48,199.24,55.38,199.24,56.48z M236,60.98
			c-0.12-0.18-0.24-0.34-0.24-0.34s0.21,0.02,0.18-0.3c0-0.01-0.39-1.66-0.64-2.48c-0.41-1.33-1.22-2.73-1.69-4.52
			c-0.47-1.8-0.77-3.17-0.67-3.59c0.01-0.05,0.61-0.2,0.61-0.2l-0.57-2.03c0,0,1.72-0.9,1.93-1.9c0.2-1-0.09-1.83-0.44-2.46
			c-0.4-0.73-0.98-2.06-1.52-2.72c-0.54-0.66-1.82-0.4-2.23-0.93c-0.41-0.53-0.13-0.8,0-1.33c0.14-0.53,0.14-0.93,0.14-0.93
			l0.41-0.27c0,0-0.34-1.1-1.76-1.16c-1.42-0.07-1.77,0.43-1.77,0.43l0.15,0.73l-0.4,0.33l0.47,0.27c0,0-0.33,1.46,0.07,1.6
			c0.43,0.14,0.61,0.13,0.61,0.13l0.06,0.4c0,0-1.9,0.32-2.18,0.58c-0.27,0.27-0.32,0.55-0.45,1.55c-0.14,1-0.47,2.85-1.15,3.72
			c-0.67,0.86-0.61,1.06-0.61,1.06s-0.34,2.33,0.2,2.73c0.54,0.4,0.85,0.28,0.81,0.26c-0.27-0.48,0.2-1.2,0.2-1.2l1.01,0.67
			c0,0-0.54,4.88-0.61,6.48c-0.06,1.38,0.44,3.4,0.69,4.65c0.02,0.11-0.91,0.17-1.09,0.63c-3.42,0.15-5.77,0.46-5.77,0.75
			c0,0.39,4.46,0.71,9.95,0.71c5.49,0,9.95-0.32,9.95-0.71C239.64,61.38,238.22,61.15,236,60.98z M232.38,43.95
			c0.2-0.8,0.34-0.4,0.54-0.07c0.21,0.33,0.61,1,0.61,1.13c0,0.13-0.74,0.53-1.08,0.73C232.45,45.74,232.18,44.75,232.38,43.95z
			 M229.57,60.77c-0.44,0-0.86,0-1.28,0.01c0.02-0.53,0.18-4.32,0.05-5.64c-0.14-1.33,0-1.6,0.21-2.26c0.2-0.66,1.18-2.33,1.18-2.33
			s0.91,2.39,1.45,3.46c0.54,1.06,1.35,3.53,1.76,4.05c0.41,0.53,0.76,2.56,0.97,2.73c0.05,0.04,0.06,0.05,0.09,0.07
			C232.65,60.8,231.15,60.77,229.57,60.77z"/>
		<path id="XMLID_1_" class="st2" d="M68.9,77.37h9.21v1.56h-0.45c-1.51,0-2.18,0.47-2.18,3.24v14.45c0,2.79,0.64,3.24,2.18,3.24
			h0.45v1.57H68.9v-1.57h0.45c1.48,0,2.18-0.32,2.18-3.24V82.17c0-2.93-0.66-3.24-2.18-3.24H68.9V77.37z M94.27,92.09h1.33
			c1.43,0,2.11,0.51,2.11,3.39v2.5c0,1.67-1.87,2.02-3.44,2.02c-5.27,0-9.1-4.77-9.1-11.33c0-5.93,3.26-10.07,7.93-10.07
			c3.09,0,6.67,1.84,7.23,5.88l0.05,0.38h1.49v-7.72h-1.48l-0.12,0.27c-0.15,0.34-0.28,0.49-0.89,0.49c-0.69,0-1.32-0.18-2.05-0.4
			c-1.03-0.3-2.31-0.68-4.26-0.68c-6.08,0-12.37,4.95-12.37,13.25c0,5.74,3.68,11.86,14.02,11.86c0.9,0,5.19-0.18,6.6-0.57
			l0.33-0.09v-6.54c0-1.99,0.61-2.66,2.42-2.66h0.45v-1.57H94.27V92.09z M121.92,78.94h0.45c1.57,0,2.13,0.49,2.13,3.24v14.45
			c0,3.09-0.77,3.24-2.13,3.24h-0.45v1.57h9.16v-1.57h-0.45c-1.51,0-2.18-0.47-2.18-3.24V82.17c0-2.77,0.67-3.24,2.18-3.24h0.45
			v-1.56h-9.16V78.94z M152.87,76.66c-0.56,0.44-1.33,0.72-3.4,0.72h-12.11c-0.86,0-1.57-0.06-2.12-0.19
			c-0.44-0.09-0.75-0.24-1.05-0.51l-0.13-0.11h-1.28v6.15h1.52l0.03-0.41c0.18-2.12,1.33-2.91,4.27-2.91h2.9v17.22
			c0,3.02-0.82,3.23-2.18,3.23h-0.45v1.57h9.09v-1.57h-0.45c-1.49,0-2.06-0.27-2.06-3.11V79.4h3.07c3.5,0,4.05,1.23,4.46,2.97
			l0.08,0.35h1.25v-6.15H153L152.87,76.66z M176.55,85.47c-2.83-1.7-5.27-3.16-5.27-5.91c0-2.04,1.61-3.36,4.1-3.36
			c1.09,0,4.69,0.35,5.17,4.82l0.04,0.4h1.62v-6.79h-1.51l-0.09,0.32c-0.08,0.28-0.14,0.37-0.1,0.35c-0.01,0-0.03,0.01-0.13,0.01
			c-0.29,0-0.67-0.12-1.15-0.28c-0.86-0.28-2.05-0.66-3.8-0.66c-4.38,0-7.32,2.8-7.32,6.96c0,2.24,0.74,4.08,2.28,5.62
			c0.97,0.98,2.35,1.83,3.81,2.74c2.78,1.73,5.66,3.52,5.66,6.19c0,2.47-1.81,4.07-4.62,4.07c-1.55,0-5.59-1.04-5.63-5.8l0-0.44
			h-1.63v7.73h1.5l0.1-0.3c0.22-0.65,0.46-0.65,0.55-0.65c0.22,0,0.72,0.17,1.25,0.35c1.15,0.4,2.72,0.94,4.52,0.94
			c4.19,0,7.6-3.42,7.6-7.62c0-2.11-0.69-3.71-2.31-5.35C179.86,87.46,178.18,86.45,176.55,85.47z M205.28,82.72h1.26v-6.15h-1.34
			l-0.12,0.09c-0.56,0.44-1.33,0.72-3.4,0.72h-12.11c-0.85,0-1.57-0.06-2.12-0.19c-0.44-0.09-0.74-0.24-1.06-0.51l-0.13-0.11h-1.28
			v6.15h1.52l0.03-0.41c0.18-2.12,1.34-2.91,4.27-2.91h2.9v17.22c0,3.02-0.82,3.23-2.18,3.23h-0.45v1.57h9.09v-1.57h-0.45
			c-1.49,0-2.06-0.27-2.06-3.11V79.4h3.07c3.5,0,4.07,1.29,4.45,2.97L205.28,82.72z M244.66,76.66c-0.56,0.44-1.33,0.72-3.4,0.72
			h-12.11c-0.84,0-1.58-0.07-2.12-0.19c-0.44-0.09-0.74-0.24-1.05-0.51l-0.13-0.11h-1.28v6.15h1.52l0.03-0.41
			c0.18-2.12,1.34-2.91,4.28-2.91h2.9v17.22c0,3.02-0.82,3.23-2.18,3.23h-0.45v1.57h9.09v-1.57h-0.45c-1.5,0-2.06-0.27-2.06-3.11
			V79.4h3.07c3.5,0,4.07,1.29,4.45,2.97l0.08,0.35h1.26v-6.15h-1.34L244.66,76.66z M265.65,96.22l-0.12,0.26
			c-1.29,2.82-1.94,2.91-5.2,2.91h-4.05c-1.09,0-1.26-0.27-1.26-1.12v-7.8h5.32c2.27,0,2.39,0.19,2.81,1.87l0.08,0.34h1.47v-6.52
			h-1.5l-0.06,0.37c-0.3,1.82-0.76,1.91-2.07,1.91h-6.05V79.4h6.25c2.49,0,2.97,0.18,3.42,2.4l0.07,0.36h1.27v-4.78h-17.6v1.56h0.45
			c1.48,0,2.18,0.32,2.18,3.25v14.49c0,3.03-0.79,3.18-2.18,3.18h-0.45v1.56h17.5l1.26-5.2H265.65z M46.18,76.45v-1.61H37.6v1.6
			h0.45c0.88,0,1.49,0.22,1.79,0.65c0.46,0.66,0.36,1.92-0.31,3.74l-4.74,13.03l-5.49-14.89c-0.36-0.98-0.41-1.65-0.17-1.99
			c0.24-0.34,0.85-0.5,1.87-0.5h0.45v-1.64H21.29v1.64h0.45c1.49,0,2.38,0.38,3.11,2.49l8.22,22.42h1.42l7.2-20.08
			c1.31-3.54,2.3-4.71,4.08-4.83L46.18,76.45z M112.82,96.62v-6.28h9.84v-2.02h-9.84v-6.15c0-3,0.92-3.24,2.21-3.24h0.45v-1.56
			h-9.24v1.56h0.45c1.6,0,2.17,0.49,2.17,3.24v14.45c0,3.02-0.82,3.24-2.17,3.24h-0.45v1.57h9.24v-1.57h-0.45
			C113.5,99.86,112.82,99.39,112.82,96.62z M226.91,99.86c-1.76,0-2.22-0.4-2.89-2.49l-6.81-20.26h-3.03l-6.49,19.4
			c-0.75,2.21-1.21,3.08-3.07,3.36l-0.38,0.06v1.5h6.86v-1.56l-0.44-0.01c-0.64-0.01-1.06-0.15-1.24-0.42
			c-0.39-0.55-0.01-1.81,0.41-3.05l1.47-4.36h5.16l-0.74-2.3h-3.68l2.66-8.11l5.44,16.56c0.13,0.39,0.24,0.92,0,1.25
			c-0.26,0.36-0.91,0.44-1.4,0.44h-0.45v1.57h9.05v-1.57H226.91z M70.45,103.99c-2.38-0.11-4.17-3.44-6.07-6.96
			c-1.49-2.77-3.02-5.61-5.03-7.25c3.49-1.35,4.25-3.9,4.25-5.88c0-3.25-2.53-6.53-8.18-6.53h-9.96v1.56h0.45
			c1.43,0,2.18,0.14,2.18,3.18v14.52c0,3.07-0.83,3.22-2.18,3.22h-0.45v1.56h9.23v-1.56h-0.45c-1.52,0-2.2-0.47-2.2-3.22v-17.5h1.99
			c3.26,0,5.44,1.95,5.44,4.85c0,2.38-1.32,4.93-5.04,4.93h-0.88v1.84c2.56,0.06,4.11,2.54,6.06,5.69c0.99,1.6,2.02,3.26,3.31,4.81
			c3.6,4.3,5.86,4.3,7.1,4.29c0.13,0,0.83,0,0.83,0l0.02-1.54L70.45,103.99z M24.6,82.53l-4.15,11.33l-5.49-14.93
			c-0.32-0.87-0.37-1.46-0.16-1.8c0.21-0.34,0.76-0.55,1.69-0.65l0.4-0.04v-1.6H6.65v1.64h0.45c1.89,0,2.47,0,3.86,3.73l7.82,21.18
			h1.33l5.64-15.7L24.6,82.53z M59.6,113.3l0.17,0.03c0.83,0.12,1.4,0.35,1.7,0.67c0.24,0.26,0.53,0.98,0.53,2.94v7.83
			c0,1.88-0.23,3.28-0.68,4.17c-0.8,1.57-2.41,2.36-4.78,2.36c-2.18,0-3.62-0.75-4.39-2.3c-0.42-0.85-0.63-2.06-0.63-3.6v-9.63
			c0-1.3,0.24-1.79,0.45-1.98c0.23-0.21,0.73-0.37,1.47-0.46l0.17-0.02v-1h-7.59v1l0.17,0.02c0.9,0.13,1.27,0.33,1.43,0.47
			c0.2,0.19,0.44,0.68,0.44,1.96v9.4c0,1.89,0.33,3.43,0.98,4.59c1.21,2.17,3.5,3.28,6.82,3.28c3.35,0,5.67-1.12,6.87-3.32
			c0.65-1.19,0.98-2.86,0.98-4.96v-7.83c0-1.9,0.27-2.62,0.49-2.89c0.26-0.32,0.83-0.56,1.68-0.7l0.17-0.03v-1H59.6V113.3z
			 M140.44,128.35c-1.06,2.35-1.55,2.41-4.3,2.41h-3.38c-0.85,0-0.98-0.19-0.98-0.87v-6.49h4.36c1.8,0,1.92,0.09,2.28,1.52
			l0.08,0.34h1.37v-5.6h-1.4l-0.06,0.37c-0.24,1.45-0.59,1.52-1.66,1.52h-4.97v-7.4h5.14c2.08,0,2.44,0.13,2.81,1.95l0.07,0.36h1.18
			v-4.14h-14.87v1.47h0.45c1.22,0,1.76,0.25,1.76,2.63v12.12c0,2.35-0.54,2.6-1.76,2.6h-0.45v1.47h14.78l1.1-4.51h-1.43
			L140.44,128.35z M117.05,113.78h0.45c0.59,0,0.98,0.13,1.16,0.38c0.22,0.32,0.18,0.91-0.12,1.72l-4.09,10.98l-4.32-11.42
			c-0.21-0.57-0.23-1.02-0.05-1.28c0.23-0.34,0.81-0.39,1.13-0.39h0.45v-1.47h-7.93v1.45l0.43,0.02c1.49,0.05,1.89,0.67,2.82,3.07
			l5.99,15.74l0.11,0.29h1.16l5.83-15.59c0.89-2.4,1.85-3.47,3.1-3.47h0.45v-1.5h-6.55V113.78z M83.55,113.78H84
			c1.31,0,1.92,0.27,1.92,2.74v10.16l-11.53-14.36h-5.64v1.43l0.41,0.04c1.85,0.16,2.47,0.96,2.47,3.14v11.34
			c0,2.59-0.63,2.87-1.96,2.87h-0.45v1.47h6.78v-1.47h-0.45c-1.57,0-2.09-0.56-2.09-2.23v-12.44l12.95,15.97l0.13,0.16h1.23v-16.22
			c0-2.04,0.44-2.6,2.06-2.6h0.45v-1.47h-6.75V113.78z M93.4,113.78h0.45c1.25,0,1.76,0.24,1.76,2.63v12.09
			c0,2.39-0.54,2.63-1.76,2.63H93.4v1.47h7.86v-1.47h-0.45c-1.09,0-1.76-0.18-1.76-2.63v-12.09c0-2.46,0.66-2.63,1.76-2.63h0.45
			v-1.47H93.4V113.78z M222.04,112.31v1.47h0.45c0.4,0,0.65,0.1,0.76,0.29c0.2,0.36-0.01,1.14-0.53,1.98l-2.71,4.29l-3.45-5.31
			c-0.39-0.6-0.35-0.83-0.31-0.9c0.03-0.06,0.25-0.34,1.53-0.34h0.45v-1.47h-8.47v1.45l0.43,0.02c1.36,0.06,1.82,0.42,3.1,2.43
			l4.06,6.32v5.96c0,2.63-0.81,2.63-1.92,2.63h-0.45v1.47h7.97v-1.47h-0.45c-1.27,0-1.69-0.38-1.69-2.63v-5.97l4.3-6.76
			c1.03-1.61,1.44-1.91,2.73-2l0.42-0.03v-1.44H222.04z M178.89,113.78h0.45c1.25,0,1.76,0.24,1.76,2.63v12.09
			c0,2.39-0.54,2.63-1.76,2.63h-0.45v1.47h7.86v-1.47h-0.45c-1.09,0-1.76-0.18-1.76-2.63v-12.09c0-2.46,0.66-2.63,1.76-2.63h0.45
			v-1.47h-7.86V113.78z M189.56,116.93h1.43l0.03-0.41c0.15-1.75,1.07-2.37,3.52-2.37h2.36v14.35c0,2.63-0.81,2.63-1.76,2.63h-0.45
			v1.47h7.76v-1.47h-0.45c-1.23,0-1.65-0.21-1.65-2.53v-14.45h2.5c2.88,0,3.34,1.01,3.66,2.43l0.08,0.34h1.17v-4.62h-18.22V116.93z
			 M164.9,134.76c-2.01-0.09-3.52-2.9-5.12-5.87c-1.25-2.33-2.55-4.73-4.24-6.11c2.94-1.14,3.59-3.29,3.59-4.96
			c0-2.74-2.13-5.51-6.9-5.51h-8.4v1.32h0.38c1.21,0,1.84,0.12,1.84,2.68v12.24c0,2.59-0.7,2.72-1.84,2.72h-0.38v1.32h7.79v-1.32
			h-0.38c-1.28,0-1.85-0.39-1.85-2.72V113.8h1.68c2.75,0,4.59,1.64,4.59,4.09c0,2.01-1.12,4.16-4.25,4.16h-0.75v1.55
			c2.16,0.05,3.47,2.14,5.11,4.8c0.84,1.35,1.7,2.75,2.79,4.05c3.03,3.63,4.94,3.62,5.99,3.61c0.11,0,0.7,0,0.7,0l0.02-1.3
			L164.9,134.76z M169.99,133.08c3.29,0,5.96-2.67,5.96-5.96c0-1.65-0.55-2.9-1.82-4.17c-1.04-1.03-2.33-1.8-3.58-2.55
			c-2.15-1.28-4.01-2.39-4.01-4.44c0-1.48,1.22-2.47,3.04-2.47c1.68,0,3.58,0.94,3.86,3.6l0.04,0.4h1.42v-5.43h-1.32l-0.09,0.32
			c-0.02,0.07-0.05,0.16-0.07,0.22c-0.21,0.01-0.49-0.09-0.86-0.21c-0.67-0.22-1.59-0.53-2.95-0.53c-3.42,0-5.73,2.19-5.73,5.46
			c0,1.74,0.59,3.17,1.79,4.38c0.76,0.76,1.82,1.41,2.94,2.11c2.12,1.31,4.31,2.66,4.31,4.65c0,1.83-1.35,3.01-3.45,3.01
			c-1.16,0-4.19-0.78-4.23-4.33l0-0.44h-1.46v0.95c0,3.26,2.3,5.46,5.73,5.46L169.99,133.08z"/>
	</g>
</g>
</svg>
