<?xml version="1.0" encoding="utf-8"?>
<!-- Generator: Adobe Illustrator 24.3.1, SVG Export Plug-In . SVG Version: 6.00 Build 0)  -->
<svg version="1.1" xmlns="http://www.w3.org/2000/svg" xmlns:xlink="http://www.w3.org/1999/xlink" x="0px" y="0px"
	 viewBox="0 0 492.52 49.65" style="enable-background:new 0 0 492.52 49.65;" xml:space="preserve">
<style type="text/css">
	.st0{display:none;}
	.st1{display:inline;fill:#87171A;stroke:#000000;stroke-miterlimit:10;}
	.st2{fill:#FFFFFF;}
</style>
<g id="Layer_2" class="st0">
	<rect x="-149.42" y="-40.94" class="st1" width="792" height="90.09"/>
</g>
<g id="Layer_1">
	<path id="XMLID_1_" class="st2" d="M62.25,11.51h9.21v1.56h-0.45c-1.51,0-2.18,0.47-2.18,3.24v14.45c0,2.79,0.64,3.24,2.18,3.24
		h0.45v1.57h-9.21V34h0.45c1.48,0,2.18-0.32,2.18-3.24V16.31c0-2.93-0.66-3.24-2.18-3.24h-0.45V11.51z M87.62,26.23h1.33
		c1.43,0,2.11,0.51,2.11,3.39v2.5c0,1.67-1.87,2.02-3.44,2.02c-5.27,0-9.1-4.77-9.1-11.33c0-5.93,3.26-10.07,7.93-10.07
		c3.09,0,6.67,1.84,7.23,5.88l0.05,0.38h1.49v-7.72h-1.48l-0.12,0.27c-0.15,0.34-0.28,0.49-0.89,0.49c-0.69,0-1.32-0.18-2.05-0.4
		c-1.03-0.3-2.31-0.68-4.26-0.68c-6.08,0-12.37,4.95-12.37,13.25c0,5.74,3.68,11.86,14.02,11.86c0.9,0,5.19-0.18,6.6-0.57l0.33-0.09
		v-6.54c0-1.99,0.61-2.66,2.42-2.66h0.45v-1.57H87.62V26.23z M115.27,13.08h0.45c1.57,0,2.13,0.49,2.13,3.24v14.45
		c0,3.09-0.77,3.24-2.13,3.24h-0.45v1.57h9.16V34h-0.45c-1.51,0-2.18-0.47-2.18-3.24V16.31c0-2.77,0.67-3.24,2.18-3.24h0.45v-1.56
		h-9.16V13.08z M146.23,10.8c-0.56,0.44-1.33,0.72-3.4,0.72h-12.11c-0.86,0-1.57-0.06-2.12-0.19c-0.44-0.09-0.75-0.24-1.05-0.51
		l-0.13-0.11h-1.28v6.15h1.52l0.03-0.41c0.18-2.12,1.33-2.91,4.27-2.91h2.9v17.22c0,3.02-0.82,3.23-2.18,3.23h-0.45v1.57h9.09V34
		h-0.45c-1.49,0-2.06-0.27-2.06-3.11V13.54h3.07c3.5,0,4.05,1.23,4.46,2.97l0.08,0.35h1.25v-6.15h-1.34L146.23,10.8z M169.9,19.61
		c-2.83-1.7-5.27-3.16-5.27-5.91c0-2.04,1.61-3.36,4.1-3.36c1.09,0,4.69,0.35,5.17,4.82l0.04,0.4h1.62V8.77h-1.51l-0.09,0.32
		c-0.08,0.28-0.14,0.37-0.1,0.35c-0.01,0-0.03,0.01-0.13,0.01c-0.29,0-0.67-0.12-1.15-0.28c-0.86-0.28-2.05-0.66-3.8-0.66
		c-4.38,0-7.32,2.8-7.32,6.96c0,2.24,0.74,4.08,2.28,5.62c0.97,0.98,2.35,1.83,3.81,2.74c2.78,1.73,5.66,3.52,5.66,6.19
		c0,2.47-1.81,4.07-4.62,4.07c-1.55,0-5.59-1.04-5.63-5.8l0-0.44h-1.63v7.73h1.5l0.1-0.3c0.22-0.65,0.46-0.65,0.55-0.65
		c0.22,0,0.72,0.17,1.25,0.35c1.15,0.4,2.72,0.94,4.52,0.94c4.19,0,7.6-3.42,7.6-7.62c0-2.11-0.69-3.71-2.31-5.35
		C173.21,21.6,171.53,20.59,169.9,19.61z M198.63,16.86h1.26v-6.15h-1.34l-0.12,0.09c-0.56,0.44-1.33,0.72-3.4,0.72h-12.11
		c-0.85,0-1.57-0.06-2.12-0.19c-0.44-0.09-0.74-0.24-1.06-0.51l-0.13-0.11h-1.28v6.15h1.52l0.03-0.41c0.18-2.12,1.34-2.91,4.27-2.91
		h2.9v17.22c0,3.02-0.82,3.23-2.18,3.23h-0.45v1.57h9.09V34h-0.45c-1.49,0-2.06-0.27-2.06-3.11V13.54h3.07
		c3.5,0,4.07,1.29,4.45,2.97L198.63,16.86z M238.01,10.8c-0.56,0.44-1.33,0.72-3.4,0.72h-12.11c-0.84,0-1.58-0.07-2.12-0.19
		c-0.44-0.09-0.74-0.24-1.05-0.51l-0.13-0.11h-1.28v6.15h1.52l0.03-0.41c0.18-2.12,1.34-2.91,4.28-2.91h2.9v17.22
		c0,3.02-0.82,3.23-2.18,3.23h-0.45v1.57h9.09V34h-0.45c-1.5,0-2.06-0.27-2.06-3.11V13.54h3.07c3.5,0,4.07,1.29,4.45,2.97l0.08,0.35
		h1.26v-6.15h-1.34L238.01,10.8z M259,30.36l-0.12,0.26c-1.29,2.82-1.94,2.91-5.2,2.91h-4.05c-1.09,0-1.26-0.27-1.26-1.12v-7.8h5.32
		c2.27,0,2.39,0.19,2.81,1.87l0.08,0.34h1.47v-6.52h-1.5l-0.06,0.37c-0.3,1.82-0.76,1.91-2.07,1.91h-6.05v-9.05h6.25
		c2.49,0,2.97,0.18,3.42,2.4l0.07,0.36h1.27v-4.78h-17.6v1.56h0.45c1.48,0,2.18,0.32,2.18,3.25v14.49c0,3.03-0.79,3.18-2.18,3.18
		h-0.45v1.56h17.5l1.26-5.2H259z M39.53,10.59V8.98h-8.58v1.6h0.45c0.88,0,1.49,0.22,1.79,0.65c0.46,0.66,0.36,1.92-0.31,3.74
		L28.13,28l-5.49-14.89c-0.36-0.98-0.41-1.65-0.17-1.99c0.24-0.34,0.85-0.5,1.87-0.5h0.45V8.98H14.64v1.64h0.45
		c1.49,0,2.38,0.38,3.11,2.49l8.22,22.42h1.42l7.2-20.08c1.31-3.54,2.3-4.71,4.08-4.83L39.53,10.59z M106.17,30.76v-6.28h9.84v-2.02
		h-9.84v-6.15c0-3,0.92-3.24,2.21-3.24h0.45v-1.56h-9.24v1.56h0.45c1.6,0,2.17,0.49,2.17,3.24v14.45c0,3.02-0.82,3.24-2.17,3.24
		h-0.45v1.57h9.24V34h-0.45C106.85,34,106.17,33.53,106.17,30.76z M220.26,34c-1.76,0-2.22-0.4-2.89-2.49l-6.81-20.26h-3.03
		l-6.49,19.4c-0.75,2.21-1.21,3.08-3.07,3.36l-0.38,0.06v1.5h6.86v-1.56L204.03,34c-0.64-0.01-1.06-0.15-1.24-0.42
		c-0.39-0.55-0.01-1.81,0.41-3.05l1.47-4.36h5.16l-0.74-2.3h-3.68l2.66-8.11l5.44,16.56c0.13,0.39,0.24,0.92,0,1.25
		c-0.26,0.36-0.91,0.44-1.4,0.44h-0.45v1.57h9.05V34H220.26z M63.8,38.13c-2.38-0.11-4.17-3.44-6.07-6.96
		c-1.49-2.77-3.02-5.61-5.03-7.25c3.49-1.35,4.25-3.9,4.25-5.88c0-3.25-2.53-6.53-8.18-6.53h-9.96v1.56h0.45
		c1.43,0,2.18,0.14,2.18,3.18v14.52c0,3.07-0.83,3.22-2.18,3.22h-0.45v1.56h9.23V34H47.6c-1.52,0-2.2-0.47-2.2-3.22v-17.5h1.99
		c3.26,0,5.44,1.95,5.44,4.85c0,2.38-1.32,4.93-5.04,4.93h-0.88v1.84c2.56,0.06,4.11,2.54,6.06,5.69c0.99,1.6,2.02,3.26,3.31,4.81
		c3.6,4.3,5.86,4.3,7.1,4.29c0.13,0,0.83,0,0.83,0l0.02-1.54L63.8,38.13z M17.95,16.67L13.8,28L8.31,13.07
		c-0.32-0.87-0.37-1.46-0.16-1.8c0.21-0.34,0.76-0.55,1.69-0.65l0.4-0.04v-1.6H0v1.64h0.45c1.89,0,2.47,0,3.86,3.73l7.82,21.18h1.33
		l5.64-15.7L17.95,16.67z M384.27,30.52c-1.26,2.78-1.84,2.86-5.1,2.86h-4.01c-1.01,0-1.16-0.22-1.16-1.04v-7.7h5.17
		c2.13,0,2.28,0.1,2.7,1.8l0.1,0.4h1.62v-6.63h-1.66l-0.07,0.44c-0.28,1.72-0.7,1.81-1.97,1.81H374v-8.78h6.09
		c2.46,0,2.89,0.16,3.33,2.31l0.09,0.42h1.4v-4.91h-17.63v1.74h0.53c1.45,0,2.08,0.29,2.08,3.12v14.37c0,2.79-0.63,3.08-2.08,3.08
		h-0.53v1.74h17.52l1.3-5.35h-1.7L384.27,30.52z M356.54,13.25h0.53c0.7,0,1.16,0.15,1.37,0.45c0.26,0.38,0.21,1.08-0.14,2.04
		l-4.85,13.01l-5.12-13.53c-0.25-0.67-0.27-1.21-0.06-1.52c0.28-0.4,0.96-0.46,1.34-0.46h0.53v-1.74h-9.4v1.72l0.51,0.02
		c1.77,0.06,2.24,0.79,3.34,3.63l7.1,18.66l0.13,0.34h1.37l6.91-18.48c1.06-2.84,2.19-4.11,3.68-4.11h0.53v-1.78h-7.76V13.25z
		 M316.83,13.25h0.53c1.55,0,2.28,0.32,2.28,3.24v12.04l-13.67-17.02h-6.68v1.69l0.48,0.05c2.19,0.19,2.93,1.13,2.93,3.73v13.44
		c0,3.07-0.74,3.4-2.32,3.4h-0.53v1.74h8.04v-1.74h-0.53c-1.86,0-2.48-0.67-2.48-2.64V16.44l15.35,18.93l0.16,0.19h1.46V16.34
		c0-2.42,0.52-3.08,2.44-3.08h0.53v-1.74h-8V13.25z M328.5,13.25h0.53c1.48,0,2.08,0.28,2.08,3.12V30.7c0,2.83-0.63,3.12-2.08,3.12
		h-0.53v1.74h9.32v-1.74h-0.53c-1.29,0-2.08-0.21-2.08-3.12V16.38c0-2.91,0.79-3.12,2.08-3.12h0.53v-1.74h-9.32V13.25z M481,11.51
		v1.74h0.53c0.47,0,0.78,0.12,0.9,0.34c0.24,0.43-0.01,1.35-0.62,2.34l-3.21,5.08l-4.09-6.29c-0.47-0.71-0.41-0.98-0.37-1.06
		c0.04-0.07,0.3-0.41,1.81-0.41h0.53v-1.74h-10.05v1.71l0.51,0.02c1.61,0.07,2.16,0.5,3.67,2.89l4.81,7.5v7.07
		c0,3.12-0.96,3.12-2.28,3.12h-0.53v1.74h9.44v-1.74h-0.53c-1.5,0-2-0.45-2-3.12v-7.07l5.09-8.01c1.22-1.91,1.71-2.26,3.24-2.37
		l0.49-0.03v-1.71H481z M429.85,13.25h0.53c1.48,0,2.08,0.28,2.08,3.12V30.7c0,2.83-0.63,3.12-2.08,3.12h-0.53v1.74h9.32v-1.74
		h-0.53c-1.29,0-2.08-0.21-2.08-3.12V16.38c0-2.91,0.79-3.12,2.08-3.12h0.53v-1.74h-9.32V13.25z M413.26,38.12
		c-2.38-0.11-4.17-3.43-6.07-6.96c-1.49-2.76-3.02-5.61-5.02-7.25c3.49-1.35,4.25-3.9,4.25-5.88c0-3.25-2.53-6.53-8.18-6.53h-9.96
		v1.56h0.45c1.43,0,2.18,0.14,2.18,3.18v14.51c0,3.07-0.83,3.22-2.18,3.22h-0.45v1.56h9.23v-1.56h-0.45c-1.52,0-2.19-0.47-2.19-3.22
		V13.27h1.99c3.26,0,5.44,1.95,5.44,4.85c0,2.38-1.32,4.93-5.04,4.93h-0.88v1.84c2.56,0.06,4.11,2.54,6.06,5.69
		c0.99,1.6,2.02,3.26,3.31,4.81c3.59,4.3,5.86,4.3,7.1,4.28c0.13,0,0.83,0,0.83,0l0.02-1.54L413.26,38.12z M419.29,36.13
		c3.9,0,7.07-3.17,7.07-7.07c0-1.95-0.65-3.43-2.16-4.95c-1.23-1.23-2.76-2.14-4.24-3.02c-2.55-1.52-4.75-2.84-4.75-5.27
		c0-1.75,1.45-2.92,3.6-2.92c1.99,0,4.24,1.12,4.57,4.26l0.05,0.47h1.69v-6.43h-1.57l-0.11,0.38c-0.03,0.09-0.06,0.19-0.08,0.26
		c-0.25,0.01-0.58-0.11-1.02-0.25c-0.79-0.27-1.88-0.63-3.49-0.63c-4.06,0-6.79,2.6-6.79,6.47c0,2.06,0.69,3.76,2.12,5.19
		c0.9,0.9,2.16,1.68,3.49,2.5c2.51,1.55,5.1,3.16,5.1,5.52c0,2.17-1.6,3.56-4.09,3.56c-1.38,0-4.97-0.92-5.01-5.13l0-0.52h-1.73
		v1.13c0,3.87,2.73,6.47,6.79,6.47L419.29,36.13z M289.58,10.25l0.22,0.03c1.07,0.16,1.81,0.45,2.19,0.86
		c0.31,0.33,0.69,1.26,0.69,3.79v10.08c0,2.42-0.3,4.23-0.88,5.37c-1.03,2.02-3.1,3.04-6.15,3.04c-2.81,0-4.66-0.97-5.66-2.96
		c-0.54-1.09-0.81-2.65-0.81-4.64V13.43c0-1.67,0.31-2.31,0.58-2.55c0.3-0.27,0.94-0.47,1.89-0.6l0.22-0.03V8.98h-9.77v1.29
		l0.22,0.03c1.15,0.16,1.64,0.42,1.85,0.6c0.26,0.24,0.57,0.87,0.57,2.53v12.11c0,2.43,0.42,4.42,1.26,5.91
		c1.56,2.8,4.51,4.22,8.77,4.22c4.32,0,7.29-1.44,8.85-4.28c0.84-1.53,1.26-3.68,1.26-6.38V14.93c0-2.44,0.34-3.38,0.63-3.73
		c0.34-0.41,1.07-0.72,2.16-0.9l0.21-0.04V8.98h-8.32V10.25z M462.69,10.8c-0.56,0.44-1.33,0.72-3.4,0.72h-12.11
		c-0.84,0-1.58-0.07-2.12-0.19c-0.44-0.09-0.74-0.24-1.05-0.51l-0.13-0.11h-1.28v6.15h1.52l0.03-0.41c0.18-2.12,1.34-2.91,4.28-2.91
		h2.9v17.22c0,3.02-0.82,3.23-2.18,3.23h-0.45v1.57h9.09V34h-0.45c-1.5,0-2.06-0.27-2.06-3.11V13.54h3.07c3.5,0,4.07,1.29,4.45,2.97
		l0.08,0.35h1.26v-6.15h-1.34L462.69,10.8z"/>
</g>
</svg>
